<svg xmlns="http://www.w3.org/2000/svg" width="25.72" height="25.72" viewBox="0 0 25.72 25.72"><defs><style>.cls-1{fill:none;}.cls-2{fill:#5959c9;}.cls-3{fill:#a9a9ff;isolation:isolate;}</style></defs><title>dial2</title><g id="레이어_2" data-name="레이어 2"><g id="레이어_1-2" data-name="레이어 1"><circle class="cls-1" cx="12.86" cy="12.86" r="12.86"/><circle class="cls-2" cx="12.86" cy="12.86" r="10.78"/><path class="cls-3" d="M12.86,5.53h0a.36.36,0,0,0-.36.36V7a.36.36,0,0,0,.36.36h0A.36.36,0,0,0,13.22,7V5.89A.38.38,0,0,0,12.86,5.53Z"/><path class="cls-3" d="M7.68,7.4h0a.31.31,0,0,0-.07.42l0,0,.72.87a.3.3,0,0,0,.42.07l0,0h0a.31.31,0,0,0,.08-.42l0,0-.72-.87A.34.34,0,0,0,7.68,7.4Z"/><path class="cls-3" d="M5,12.14H5a.37.37,0,0,0,.29.4l1.08.18a.36.36,0,0,0,.39-.29h0a.36.36,0,0,0-.28-.4l-1.08-.18A.4.4,0,0,0,5,12.14Z"/><path class="cls-3" d="M5.89,17.57h0a.32.32,0,0,0,.43.13l0,0,1-.53a.32.32,0,0,0,.12-.44l0,0h0A.32.32,0,0,0,7,16.54l0,0L6,17.1A.36.36,0,0,0,5.89,17.57Z"/><path class="cls-3" d="M19.79,17.57h0a.36.36,0,0,0-.1-.47l-1-.54a.36.36,0,0,0-.47.11h0a.36.36,0,0,0,.11.47l1,.53A.35.35,0,0,0,19.79,17.57Z"/><path class="cls-3" d="M20.76,12.14h0a.36.36,0,0,0-.39-.29L19.29,12a.37.37,0,0,0-.29.4h0a.37.37,0,0,0,.4.29l1.08-.18a.32.32,0,0,0,.29-.35A.11.11,0,0,0,20.76,12.14Z"/><path class="cls-3" d="M18,7.4h0a.34.34,0,0,0-.47,0l-.72.87a.32.32,0,0,0,0,.46h0a.33.33,0,0,0,.46,0L18,7.86C18.18,7.76,18.14,7.54,18,7.4Z"/><path class="cls-3" d="M12.86,8.37A5.18,5.18,0,1,0,18,13.54,5.17,5.17,0,0,0,12.86,8.37Zm-2.09,3.41a1,1,0,1,1,1-1A1,1,0,0,1,10.77,11.78Z"/></g></g></svg>