<svg xmlns="http://www.w3.org/2000/svg" width="25.72" height="25.72" viewBox="0 0 25.72 25.72"><defs><style>.cls-1{fill:#5959c9;}.cls-2{fill:#a9a9ff;isolation:isolate;}</style></defs><title>dial1</title><g id="레이어_2" data-name="레이어 2"><g id="레이어_1-2" data-name="레이어 1"><circle class="cls-1" cx="12.86" cy="12.86" r="12.86"/><path class="cls-2" d="M12.86,4.11h0a.43.43,0,0,0-.43.43V5.87a.43.43,0,0,0,.43.43h0a.43.43,0,0,0,.43-.43V4.54A.47.47,0,0,0,12.86,4.11Z"/><path class="cls-2" d="M6.69,6.34h0a.36.36,0,0,0-.09.51l0,.05.86,1A.37.37,0,0,0,8,8l.05,0h0a.36.36,0,0,0,.08-.51l0,0-.86-1A.39.39,0,0,0,6.69,6.34Z"/><path class="cls-2" d="M3.43,12h0a.42.42,0,0,0,.34.47l1.29.22a.44.44,0,0,0,.47-.35h0a.43.43,0,0,0-.34-.47L3.9,11.66A.46.46,0,0,0,3.43,12Z"/><path class="cls-2" d="M4.54,18.47h0a.38.38,0,0,0,.52.16l0,0L6.26,18a.39.39,0,0,0,.15-.52l0,0h0a.39.39,0,0,0-.52-.15l0,0-1.16.65A.42.42,0,0,0,4.54,18.47Z"/><path class="cls-2" d="M21.13,18.47h0a.41.41,0,0,0-.13-.55l-1.15-.65a.43.43,0,0,0-.56.13h0a.43.43,0,0,0,.13.56l1.15.64A.42.42,0,0,0,21.13,18.47Z"/><path class="cls-2" d="M22.29,12h0a.42.42,0,0,0-.47-.34l-1.29.21a.43.43,0,0,0-.34.47h0a.44.44,0,0,0,.47.35L22,12.47a.37.37,0,0,0,.35-.4S22.29,12,22.29,12Z"/><path class="cls-2" d="M19,6.34h0a.41.41,0,0,0-.56,0l-.86,1a.39.39,0,0,0,.05.55h0a.39.39,0,0,0,.55,0l.86-1C19.2,6.77,19.16,6.52,19,6.34Z"/><path class="cls-2" d="M12.86,7.5A6.18,6.18,0,1,0,19,13.67,6.17,6.17,0,0,0,12.86,7.5Zm-2.49,4.07a1.16,1.16,0,0,1,0-2.31,1.16,1.16,0,1,1,0,2.31Z"/></g></g></svg>