<svg xmlns="http://www.w3.org/2000/svg" width="25.72" height="25.72" viewBox="0 0 25.72 25.72"><defs><style>.cls-1{fill:none;}.cls-2{fill:#5959c9;}.cls-3{fill:#a9a9ff;isolation:isolate;}</style></defs><title>dial3</title><g id="레이어_2" data-name="레이어 2"><g id="레이어_1-2" data-name="레이어 1"><circle class="cls-1" cx="12.86" cy="12.86" r="12.86"/><circle class="cls-2" cx="12.86" cy="12.86" r="9.04"/><path class="cls-3" d="M12.86,6.71h0a.3.3,0,0,0-.3.3V8a.3.3,0,0,0,.3.3h0a.3.3,0,0,0,.3-.3V7A.32.32,0,0,0,12.86,6.71Z"/><path class="cls-3" d="M8.52,8.28h0a.26.26,0,0,0-.06.36l0,0,.6.72a.25.25,0,0,0,.36.06l0,0h0a.24.24,0,0,0,.06-.35l0,0-.6-.72A.27.27,0,0,0,8.52,8.28Z"/><path class="cls-3" d="M6.23,12.26h0a.31.31,0,0,0,.24.33l.9.15a.31.31,0,0,0,.34-.24h0a.31.31,0,0,0-.25-.33L6.56,12A.32.32,0,0,0,6.23,12.26Z"/><path class="cls-3" d="M7,16.81H7a.28.28,0,0,0,.37.11l0,0,.82-.45a.28.28,0,0,0,.11-.37l0,0h0a.27.27,0,0,0-.37-.1h0l-.82.46A.31.31,0,0,0,7,16.81Z"/><path class="cls-3" d="M18.68,16.81h0a.31.31,0,0,0-.09-.39L17.77,16a.31.31,0,0,0-.39.09h0a.31.31,0,0,0,.09.4l.81.45A.32.32,0,0,0,18.68,16.81Z"/><path class="cls-3" d="M19.49,12.26h0a.3.3,0,0,0-.33-.24l-.91.15a.3.3,0,0,0-.24.33h0a.31.31,0,0,0,.33.24l.91-.15a.27.27,0,0,0,.25-.29S19.49,12.27,19.49,12.26Z"/><path class="cls-3" d="M17.17,8.28h0a.27.27,0,0,0-.39,0L16.17,9a.29.29,0,0,0,0,.39h0a.28.28,0,0,0,.4,0l.6-.72C17.32,8.58,17.29,8.4,17.17,8.28Z"/><path class="cls-3" d="M12.86,9.09a4.34,4.34,0,1,0,4.34,4.34A4.34,4.34,0,0,0,12.86,9.09ZM11.11,12a.81.81,0,1,1,.81-.81A.81.81,0,0,1,11.11,12Z"/></g></g></svg>