<svg xmlns="http://www.w3.org/2000/svg" width="25.72" height="25.72" viewBox="0 0 25.72 25.72"><defs><style>.cls-1{fill:none;}.cls-2{fill:#f46300;}.cls-3{fill:#ffb769;}</style></defs><title>display3</title><g id="레이어_2" data-name="레이어 2"><g id="레이어_1-2" data-name="레이어 1"><circle class="cls-1" cx="12.86" cy="12.86" r="12.86"/><circle class="cls-2" cx="12.86" cy="12.86" r="9.04"/><path class="cls-3" d="M17.92,8.31H7.83a.58.58,0,0,0-.58.58v7.3a.58.58,0,0,0,.58.58h4.8v.74h-2.3a.52.52,0,0,0-.52.52H15.9a.49.49,0,0,0-.45-.52H13.12v-.74h4.8a.58.58,0,0,0,.58-.58V8.89A.58.58,0,0,0,17.92,8.31Zm-.23,7.33H8V8.94h9.65Z"/><rect class="cls-3" x="8.56" y="9.49" width="8.6" height="5.65"/></g></g></svg>