<svg xmlns="http://www.w3.org/2000/svg" width="25.72" height="25.72" viewBox="0 0 25.72 25.72"><defs><style>.cls-1{fill:none;}.cls-2{fill:#f46300;}.cls-3{fill:#ffb769;}</style></defs><title>display2</title><g id="레이어_2" data-name="레이어 2"><g id="레이어_1-2" data-name="레이어 1"><circle class="cls-1" cx="12.86" cy="12.86" r="12.86"/><circle class="cls-2" cx="12.86" cy="12.86" r="10.78"/><path class="cls-3" d="M18.89,7.44h-12a.69.69,0,0,0-.69.69v8.71a.69.69,0,0,0,.69.69h5.72v.87H9.85a.62.62,0,0,0-.62.62h7.25a.58.58,0,0,0-.54-.62H13.17v-.87h5.72a.69.69,0,0,0,.7-.69V8.12A.7.7,0,0,0,18.89,7.44Zm-.27,8.74H7.11v-8H18.62Z"/><rect class="cls-3" x="7.74" y="8.84" width="10.25" height="6.74"/></g></g></svg>