<svg xmlns="http://www.w3.org/2000/svg" width="25.72" height="25.72" viewBox="0 0 25.72 25.72"><defs><style>.cls-1{fill:#f46300;}.cls-2{fill:#ffb769;}</style></defs><title>display1</title><g id="레이어_2" data-name="레이어 2"><g id="레이어_1-2" data-name="레이어 1"><circle class="cls-1" cx="12.86" cy="12.86" r="12.86"/><path class="cls-2" d="M20.06,6.39H5.71a.83.83,0,0,0-.83.83V17.6a.83.83,0,0,0,.83.83h6.82v1H9.27a.74.74,0,0,0-.74.74h8.65a.69.69,0,0,0-.64-.74h-3.3v-1h6.82a.83.83,0,0,0,.82-.83V7.21A.82.82,0,0,0,20.06,6.39Zm-.33,10.43H6V7.28H19.73Z"/><rect class="cls-2" x="6.75" y="8.07" width="12.23" height="8.04"/></g></g></svg>