<svg xmlns="http://www.w3.org/2000/svg" width="25.72" height="25.72" viewBox="0 0 25.72 25.72"><defs><style>.cls-1{fill:none;}.cls-2{fill:#5959c9;}.cls-3{fill:#a9a9ff;}</style></defs><title>ir2</title><g id="레이어_2" data-name="레이어 2"><g id="레이어_1-2" data-name="레이어 1"><circle class="cls-1" cx="12.86" cy="12.86" r="12.86"/><circle class="cls-2" cx="12.86" cy="12.86" r="10.78"/><path class="cls-3" d="M10.13,8.58h-5V17.1h5a.32.32,0,0,0,.32-.32h0V8.94A.37.37,0,0,0,10.13,8.58Z"/><path class="cls-3" d="M10.45,13.61V15.7a1,1,0,0,0,0-2.09Z"/><path class="cls-3" d="M10.45,10v2.09a1,1,0,0,0,0-2.09Z"/><circle class="cls-3" cx="12.34" cy="10.83" r="0.22"/><circle class="cls-3" cx="13.08" cy="11.07" r="0.22"/><circle class="cls-3" cx="13.87" cy="11.31" r="0.22"/><circle class="cls-3" cx="14.64" cy="11.47" r="0.22"/><circle class="cls-3" cx="15.43" cy="11.78" r="0.22"/><circle class="cls-3" cx="16.16" cy="11.99" r="0.22"/><circle class="cls-3" cx="16.96" cy="12.24" r="0.22"/><circle class="cls-3" cx="17.76" cy="12.48" r="0.22"/><circle class="cls-3" cx="18.5" cy="12.72" r="0.22"/><circle class="cls-3" cx="19.29" cy="12.97" r="0.22"/><circle class="cls-3" cx="18.5" cy="13.18" r="0.22"/><circle class="cls-3" cx="17.75" cy="13.44" r="0.22"/><circle class="cls-3" cx="16.94" cy="13.66" r="0.22"/><circle class="cls-3" cx="16.21" cy="13.91" r="0.22"/><circle class="cls-3" cx="15.4" cy="14.12" r="0.22"/><circle class="cls-3" cx="14.66" cy="14.36" r="0.22"/><polygon class="cls-3" points="13.97 14.58 14.15 15.09 13.43 15.09 12.68 15.05 13.25 14.58 13.79 14.12 13.97 14.58"/><path class="cls-3" d="M20.55,15.23a.28.28,0,0,1-.28.29h0a.3.3,0,0,1-.29-.28h0V10.45a.3.3,0,0,1,.28-.29h0a.29.29,0,0,1,.29.28h0Z"/></g></g></svg>