<svg xmlns="http://www.w3.org/2000/svg" width="25.72" height="25.72" viewBox="0 0 25.72 25.72"><defs><style>.cls-1{fill:none;}.cls-2{fill:#5959c9;}.cls-3{fill:#a9a9ff;}</style></defs><title>ir3</title><g id="레이어_2" data-name="레이어 2"><g id="레이어_1-2" data-name="레이어 1"><circle class="cls-1" cx="12.86" cy="12.86" r="12.86"/><circle class="cls-2" cx="12.86" cy="12.86" r="9.04"/><path class="cls-3" d="M10.57,9.27H6.38v7.15h4.19a.28.28,0,0,0,.27-.28h0V9.57A.31.31,0,0,0,10.57,9.27Z"/><path class="cls-3" d="M10.84,13.49v1.75a.88.88,0,0,0,0-1.75Z"/><path class="cls-3" d="M10.84,10.45V12.2a.88.88,0,0,0,0-1.75Z"/><circle class="cls-3" cx="12.42" cy="11.15" r="0.18"/><circle class="cls-3" cx="13.04" cy="11.36" r="0.18"/><circle class="cls-3" cx="13.71" cy="11.56" r="0.18"/><circle class="cls-3" cx="14.36" cy="11.7" r="0.18"/><circle class="cls-3" cx="15.02" cy="11.95" r="0.18"/><circle class="cls-3" cx="15.63" cy="12.13" r="0.18"/><circle class="cls-3" cx="16.3" cy="12.34" r="0.18"/><circle class="cls-3" cx="16.97" cy="12.54" r="0.18"/><circle class="cls-3" cx="17.59" cy="12.75" r="0.18"/><circle class="cls-3" cx="18.26" cy="12.95" r="0.18"/><circle class="cls-3" cx="17.59" cy="13.13" r="0.18"/><circle class="cls-3" cx="16.96" cy="13.35" r="0.18"/><circle class="cls-3" cx="16.28" cy="13.53" r="0.18"/><circle class="cls-3" cx="15.67" cy="13.74" r="0.18"/><circle class="cls-3" cx="14.99" cy="13.92" r="0.18"/><circle class="cls-3" cx="14.37" cy="14.11" r="0.18"/><polygon class="cls-3" points="13.79 14.31 13.94 14.73 13.34 14.73 12.71 14.7 13.19 14.31 13.64 13.91 13.79 14.31"/><path class="cls-3" d="M19.31,14.85a.24.24,0,0,1-.24.24h0a.24.24,0,0,1-.24-.24h0v-4a.23.23,0,0,1,.23-.24h0a.23.23,0,0,1,.24.23h0Z"/></g></g></svg>