<svg xmlns="http://www.w3.org/2000/svg" width="25.72" height="25.72" viewBox="0 0 25.72 25.72"><defs><style>.cls-1{fill:#f46300;}.cls-2{fill:#ffb769;}</style></defs><title>led1</title><g id="레이어_2" data-name="레이어 2"><g id="레이어_1-2" data-name="레이어 1"><circle class="cls-1" cx="12.86" cy="12.86" r="12.86"/><rect class="cls-2" x="7.59" y="17.96" width="10.63" height="1.16"/><path class="cls-2" d="M12.9,6.9h0a.43.43,0,0,1-.43-.43V4a.43.43,0,0,1,.43-.43h0a.43.43,0,0,1,.43.43V6.47A.45.45,0,0,1,12.9,6.9Z"/><path class="cls-2" d="M10,7.67h0a.38.38,0,0,1-.53-.12l0,0L8.23,5.36a.39.39,0,0,1,.12-.53l.05,0h0a.39.39,0,0,1,.53.12L9,5,10.2,7.12A.46.46,0,0,1,10,7.67Z"/><path class="cls-2" d="M7.93,9.77h0a.42.42,0,0,1-.56.17L5.23,8.7a.43.43,0,0,1-.17-.56h0A.44.44,0,0,1,5.62,8L7.76,9.22A.42.42,0,0,1,7.93,9.77Z"/><path class="cls-2" d="M17.83,9.77h0A.39.39,0,0,1,18,9.24l.05,0L20.15,8a.38.38,0,0,1,.53.13.08.08,0,0,1,0,0h0a.39.39,0,0,1-.12.54l0,0L18.39,9.94A.47.47,0,0,1,17.83,9.77Z"/><path class="cls-2" d="M15.73,7.67h0a.42.42,0,0,1-.17-.55L16.8,5a.43.43,0,0,1,.56-.17h0a.43.43,0,0,1,.17.56L16.29,7.5A.42.42,0,0,1,15.73,7.67Z"/><path class="cls-2" d="M10,19.55V21.6a.52.52,0,1,0,1,0h0V19.55Z"/><path class="cls-2" d="M14.7,19.55V21.6a.52.52,0,1,0,1,0V19.55Z"/><path class="cls-2" d="M17.4,17.53V12.64a4.54,4.54,0,1,0-9.08,0v4.89Z"/></g></g></svg>