<svg xmlns="http://www.w3.org/2000/svg" width="25.72" height="25.72" viewBox="0 0 25.72 25.72"><defs><style>.cls-1{fill:none;}.cls-2{fill:#f46300;}.cls-3{fill:#ffb769;}</style></defs><title>led2</title><g id="레이어_2" data-name="레이어 2"><g id="레이어_1-2" data-name="레이어 1"><circle class="cls-1" cx="12.86" cy="12.86" r="12.86"/><circle class="cls-2" cx="12.86" cy="12.86" r="10.78"/><rect class="cls-3" x="8.44" y="17.14" width="8.91" height="0.97"/><path class="cls-3" d="M12.9,7.86h0a.36.36,0,0,1-.36-.36v-2a.36.36,0,0,1,.36-.36h0a.36.36,0,0,1,.35.36v2A.37.37,0,0,1,12.9,7.86Z"/><path class="cls-3" d="M10.49,8.51h0a.33.33,0,0,1-.45-.1l0,0L9,6.57a.31.31,0,0,1,.1-.44l0,0h0a.34.34,0,0,1,.45.11s0,0,0,0l1,1.79A.42.42,0,0,1,10.49,8.51Z"/><path class="cls-3" d="M8.73,10.27h0a.37.37,0,0,1-.47.15L6.46,9.37a.35.35,0,0,1-.14-.46h0a.36.36,0,0,1,.47-.15l1.79,1A.36.36,0,0,1,8.73,10.27Z"/><path class="cls-3" d="M17,10.27h0a.31.31,0,0,1,.1-.44l0,0,1.8-1a.31.31,0,0,1,.44.11l0,0h0a.32.32,0,0,1-.11.44l0,0-1.8,1.05A.39.39,0,0,1,17,10.27Z"/><path class="cls-3" d="M15.27,8.51h0A.36.36,0,0,1,15.12,8l1.05-1.79a.35.35,0,0,1,.46-.15h0a.37.37,0,0,1,.15.47l-1.05,1.8A.35.35,0,0,1,15.27,8.51Z"/><path class="cls-3" d="M10.49,18.46v1.73a.43.43,0,0,0,.86,0h0V18.46Z"/><path class="cls-3" d="M14.4,18.46v1.73a.44.44,0,0,0,.87,0V18.46Z"/><path class="cls-3" d="M16.67,16.78v-4.1a3.81,3.81,0,0,0-7.62,0v4.1Z"/></g></g></svg>