<svg xmlns="http://www.w3.org/2000/svg" width="25.72" height="25.72" viewBox="0 0 25.72 25.72"><defs><style>.cls-1{fill:none;}.cls-2{fill:#f46300;}.cls-3{fill:#ffb769;}</style></defs><title>led3</title><g id="레이어_2" data-name="레이어 2"><g id="레이어_1-2" data-name="레이어 1"><circle class="cls-1" cx="12.86" cy="12.86" r="12.86"/><circle class="cls-2" cx="12.86" cy="12.86" r="9.04"/><rect class="cls-3" x="9.15" y="16.45" width="7.47" height="0.81"/><path class="cls-3" d="M12.89,8.67h0a.29.29,0,0,1-.3-.3V6.65a.29.29,0,0,1,.3-.3h0a.29.29,0,0,1,.3.3V8.37A.32.32,0,0,1,12.89,8.67Z"/><path class="cls-3" d="M10.87,9.21h0a.27.27,0,0,1-.37-.08l0,0L9.6,7.59a.28.28,0,0,1,.09-.38l0,0h0a.28.28,0,0,1,.38.09l0,0L11,8.82A.35.35,0,0,1,10.87,9.21Z"/><path class="cls-3" d="M9.39,10.69h0a.3.3,0,0,1-.39.12L7.49,9.94a.33.33,0,0,1-.12-.4h0a.31.31,0,0,1,.4-.12l1.5.88A.3.3,0,0,1,9.39,10.69Z"/><path class="cls-3" d="M16.36,10.69h0a.26.26,0,0,1,.08-.37l0,0L18,9.42a.28.28,0,0,1,.38.09v0h0a.28.28,0,0,1-.08.38l0,0-1.5.87A.34.34,0,0,1,16.36,10.69Z"/><path class="cls-3" d="M14.88,9.21h0a.3.3,0,0,1-.12-.39l.87-1.51A.3.3,0,0,1,16,7.19h0a.3.3,0,0,1,.12.4l-.87,1.5A.3.3,0,0,1,14.88,9.21Z"/><path class="cls-3" d="M10.87,17.56V19a.36.36,0,1,0,.72,0h0V17.56Z"/><path class="cls-3" d="M14.16,17.56V19a.36.36,0,1,0,.72,0V17.56Z"/><path class="cls-3" d="M16.05,16.14V12.71a3.2,3.2,0,1,0-6.39,0v3.43Z"/></g></g></svg>