<svg xmlns="http://www.w3.org/2000/svg" width="25.72" height="25.72" viewBox="0 0 25.72 25.72"><defs><style>.cls-1{fill:none;}.cls-2{fill:#f46300;}.cls-3{fill:#ffb769;}</style></defs><title>motorC2</title><g id="레이어_2" data-name="레이어 2"><g id="레이어_1-2" data-name="레이어 1"><circle class="cls-1" cx="12.86" cy="12.86" r="12.86"/><circle class="cls-2" cx="12.86" cy="12.86" r="10.78"/><path class="cls-3" d="M20.29,11.13H19.6v-.91A1.61,1.61,0,0,0,18,8.6h-.78v8.52H18A1.62,1.62,0,0,0,19.6,15.5v-.92h.69Z"/><polygon class="cls-3" points="6.45 11.46 6.45 12.55 4.75 12.55 4.75 13.16 6.45 13.16 6.45 14.26 7.17 14.26 7.17 11.46 6.45 11.46"/><path class="cls-3" d="M8.9,8.6a1.61,1.61,0,0,0-1.62,1.62V15.5A1.62,1.62,0,0,0,8.9,17.12h7.94V8.6Zm6.87,4.51a.21.21,0,0,1-.16.21l-.76.24a2.14,2.14,0,0,1-.2.47l.38.71A.23.23,0,0,1,15,15l-.36.35a.21.21,0,0,1-.26,0l-.7-.37a2.55,2.55,0,0,1-.48.2L13,16a.22.22,0,0,1-.21.15h-.51A.22.22,0,0,1,12,16l-.23-.76a2.55,2.55,0,0,1-.48-.2l-.7.37a.21.21,0,0,1-.26,0L10,15a.23.23,0,0,1,0-.26l.38-.71a2.14,2.14,0,0,1-.2-.47l-.76-.24a.21.21,0,0,1-.16-.21v-.5a.22.22,0,0,1,.16-.22l.76-.23a2,2,0,0,1,.2-.48L10,11a.23.23,0,0,1,0-.26l.36-.36a.23.23,0,0,1,.26,0l.7.37a2.55,2.55,0,0,1,.48-.2L12,9.74a.23.23,0,0,1,.21-.16h.51a.23.23,0,0,1,.21.16l.23.76a2.55,2.55,0,0,1,.48.2l.7-.37a.23.23,0,0,1,.26,0l.36.36A.23.23,0,0,1,15,11l-.38.7a2,2,0,0,1,.2.48l.76.23a.22.22,0,0,1,.16.22Z"/><path class="cls-3" d="M12.49,11.71a1.15,1.15,0,1,0,1.15,1.15A1.15,1.15,0,0,0,12.49,11.71Z"/></g></g></svg>