<svg xmlns="http://www.w3.org/2000/svg" width="25.72" height="25.72" viewBox="0 0 25.72 25.72"><defs><style>.cls-1{fill:none;}.cls-2{fill:#f46300;}.cls-3{fill:#ffb769;}</style></defs><title>motor3</title><g id="레이어_2" data-name="레이어 2"><g id="레이어_1-2" data-name="레이어 1"><circle class="cls-1" cx="12.86" cy="12.86" r="12.86"/><circle class="cls-2" cx="12.86" cy="12.86" r="9.04"/><rect class="cls-3" x="6.38" y="12.62" width="1.45" height="0.51"/><path class="cls-3" d="M18.8,11.35v-.69a1.39,1.39,0,0,0-1.38-1.39h-.64v7.21h.63A1.4,1.4,0,0,0,18.8,15.1h0V14.4h.57v-3H18.8Z"/><rect class="cls-3" x="7.83" y="11.68" width="0.6" height="2.35"/><path class="cls-3" d="M9.82,9.27a1.38,1.38,0,0,0-1.39,1.38h0v4.4a1.4,1.4,0,0,0,1.38,1.39h6.64V9.27Z"/></g></g></svg>