<svg xmlns="http://www.w3.org/2000/svg" width="25.72" height="25.72" viewBox="0 0 25.72 25.72"><defs><style>.cls-1{fill:none;}.cls-2{fill:#f46300;}.cls-3{fill:#ffb769;}</style></defs><title>motorC3</title><g id="레이어_2" data-name="레이어 2"><g id="레이어_1-2" data-name="레이어 1"><circle class="cls-1" cx="12.86" cy="12.86" r="12.86"/><circle class="cls-2" cx="12.86" cy="12.86" r="9.04"/><path class="cls-3" d="M19.09,11.41h-.57v-.77a1.35,1.35,0,0,0-1.36-1.35h-.65v7.14h.65a1.36,1.36,0,0,0,1.36-1.36v-.76h.57Z"/><polygon class="cls-3" points="7.48 11.68 7.48 12.6 6.06 12.6 6.06 13.12 7.48 13.12 7.48 14.03 8.09 14.03 8.09 11.68 7.48 11.68"/><path class="cls-3" d="M9.53,9.29a1.35,1.35,0,0,0-1.35,1.35v4.43a1.36,1.36,0,0,0,1.35,1.36H16.2V9.29Zm5.77,3.78a.18.18,0,0,1-.13.18l-.64.19a1.78,1.78,0,0,1-.17.4l.32.59a.2.2,0,0,1,0,.22l-.31.3a.17.17,0,0,1-.21,0l-.59-.31a2.83,2.83,0,0,1-.4.17l-.2.63a.18.18,0,0,1-.17.14h-.43a.2.2,0,0,1-.18-.14L12,14.84a2.4,2.4,0,0,1-.4-.17L11,15a.18.18,0,0,1-.22,0l-.3-.3a.18.18,0,0,1,0-.22l.31-.59a1.76,1.76,0,0,1-.16-.4l-.64-.19a.18.18,0,0,1-.13-.18v-.42a.17.17,0,0,1,.13-.18l.64-.2a2,2,0,0,1,.16-.4l-.31-.58a.18.18,0,0,1,0-.22l.3-.3a.2.2,0,0,1,.22,0l.59.32a1.78,1.78,0,0,1,.4-.17l.19-.64a.21.21,0,0,1,.18-.13h.43a.18.18,0,0,1,.17.13l.2.64a2,2,0,0,1,.4.17l.59-.32a.18.18,0,0,1,.21,0l.31.3a.2.2,0,0,1,0,.22l-.32.58a2,2,0,0,1,.17.4l.64.2a.17.17,0,0,1,.13.18Z"/><path class="cls-3" d="M12.55,11.89a1,1,0,1,0,1,1A1,1,0,0,0,12.55,11.89Z"/></g></g></svg>