<svg xmlns="http://www.w3.org/2000/svg" width="25.72" height="25.72" viewBox="0 0 25.72 25.72"><defs><style>.cls-1{fill:#f46300;}.cls-2{fill:#ffb769;}</style></defs><title>motorC1</title><g id="레이어_2" data-name="레이어 2"><g id="레이어_1-2" data-name="레이어 1"><circle class="cls-1" cx="12.86" cy="12.86" r="12.86"/><path class="cls-2" d="M21.72,10.8h-.81V9.71A1.93,1.93,0,0,0,19,7.78h-.93V17.94H19A1.94,1.94,0,0,0,20.91,16V14.92h.81Z"/><polygon class="cls-2" points="5.21 11.19 5.21 12.49 3.19 12.49 3.19 13.22 5.21 13.22 5.21 14.53 6.07 14.53 6.07 11.19 5.21 11.19"/><path class="cls-2" d="M8.13,7.78A1.93,1.93,0,0,0,6.2,9.71V16a1.94,1.94,0,0,0,1.93,1.93H17.6V7.78Zm8.2,5.38a.26.26,0,0,1-.19.25l-.91.28a2.35,2.35,0,0,1-.23.57l.45.84a.27.27,0,0,1,0,.31l-.43.43a.26.26,0,0,1-.31,0l-.83-.44a3.57,3.57,0,0,1-.57.23l-.28.91a.27.27,0,0,1-.25.19h-.61a.27.27,0,0,1-.25-.19l-.28-.91a3.57,3.57,0,0,1-.57-.23l-.83.44a.25.25,0,0,1-.31,0l-.43-.43a.27.27,0,0,1,0-.31l.45-.84a2.87,2.87,0,0,1-.24-.57l-.91-.28a.25.25,0,0,1-.18-.25v-.6a.27.27,0,0,1,.18-.26L9.61,12a2.87,2.87,0,0,1,.24-.57l-.45-.84a.27.27,0,0,1,0-.31l.43-.43a.25.25,0,0,1,.31,0l.83.44a3.57,3.57,0,0,1,.57-.23l.28-.91A.27.27,0,0,1,12.12,9h.61a.27.27,0,0,1,.25.19l.28.91a3.57,3.57,0,0,1,.57.23l.83-.44a.26.26,0,0,1,.31,0l.43.43a.27.27,0,0,1,0,.31l-.45.84a2.35,2.35,0,0,1,.23.57l.91.27a.28.28,0,0,1,.19.26Z"/><path class="cls-2" d="M12.42,11.49a1.37,1.37,0,1,0,1.38,1.37A1.37,1.37,0,0,0,12.42,11.49Z"/></g></g></svg>