<svg xmlns="http://www.w3.org/2000/svg" width="25.72" height="25.72" viewBox="0 0 25.72 25.72"><defs><style>.cls-1{fill:none;}.cls-2{fill:#f46300;}.cls-3{fill:#ffb769;}</style></defs><title>motor2</title><g id="레이어_2" data-name="레이어 2"><g id="레이어_1-2" data-name="레이어 1"><circle class="cls-1" cx="12.86" cy="12.86" r="12.86"/><circle class="cls-2" cx="12.86" cy="12.86" r="10.78"/><rect class="cls-3" x="5.13" y="12.57" width="1.72" height="0.61"/><path class="cls-3" d="M19.94,11.06v-.82a1.66,1.66,0,0,0-1.65-1.66h-.76v8.59h.76a1.64,1.64,0,0,0,1.65-1.64h0v-.83h.68V11.1h-.68Z"/><rect class="cls-3" x="6.86" y="11.46" width="0.72" height="2.8"/><path class="cls-3" d="M9.23,8.58a1.65,1.65,0,0,0-1.65,1.65h0v5.24a1.65,1.65,0,0,0,1.64,1.66h7.92V8.58Z"/></g></g></svg>