<svg xmlns="http://www.w3.org/2000/svg" width="25.72" height="25.72" viewBox="0 0 25.72 25.72"><defs><style>.cls-1{fill:none;}.cls-2{fill:#ff9100;}.cls-3{fill:#ffdf5a;}</style></defs><title>network2</title><g id="레이어_2" data-name="레이어 2"><g id="레이어_1-2" data-name="레이어 1"><circle class="cls-1" cx="12.86" cy="12.86" r="12.86"/><circle class="cls-2" cx="12.86" cy="12.86" r="10.78"/><path class="cls-3" d="M18.72,11.52v0c0-.17,0-.35,0-.53v0l-.11-.54v0c0-.18-.11-.33-.14-.51,0,0,0,0,0-.07a.57.57,0,0,1-.07-.22s0,0,0-.07a.25.25,0,0,0-.08-.14.15.15,0,0,1,0-.11s-.07-.11-.07-.18,0-.07-.08-.11,0,0,0-.07a1.28,1.28,0,0,1-.15-.25s0,0,0,0-.07-.1-.11-.14v0c-.07-.07-.11-.18-.18-.25l0,0c-.07-.07-.14-.18-.21-.25v0l-.11-.11,0,0L17,7.57S17,7.53,17,7.5l-.08-.08-.18-.18-.07-.07-.11-.1L16.42,7s-.11-.07-.15-.11-.07,0-.1-.07-.08,0-.08-.07h0l0,0-.4.58h0c.18.1.33.25.51.36l0,0c.07.07.14.11.22.18l0,0,.18.18v0a4.77,4.77,0,0,1,.58.76h0c0,.07.1.18.14.25a0,0,0,0,0,0,0,.89.89,0,0,0,.14.25v0l.11.29h0a2.72,2.72,0,0,0,.11.25c0,.07,0,.07,0,.11a.71.71,0,0,0,.07.18c0,.07,0,.07,0,.11a.49.49,0,0,1,0,.21.11.11,0,0,0,0,.11c0,.07,0,.18,0,.25v.11a.42.42,0,0,0,0,.22v.82a.41.41,0,0,1,0,.22v.11c0,.07,0,.17,0,.25a.11.11,0,0,1,0,.1c0,.08,0,.15,0,.22s0,.07,0,.11a.53.53,0,0,1-.07.18c0,.07,0,.07,0,.11a2.15,2.15,0,0,1-.11.25v0l-.11.29v0c0,.07-.07.18-.11.25a0,0,0,0,1,0,0c0,.08-.11.18-.15.26h0c-.18.25-.36.5-.57.75l0,0-.18.18,0,0c-.08.07-.15.11-.22.18l0,0a.68.68,0,0,1-.26.18h0c-.07.07-.18.1-.25.18l.4.61h0s.07,0,.11-.07,0,0,.07,0,.14-.11.21-.14l0,0,.11-.11s0,0,.07,0,.14-.11.18-.18l.07-.08s.07,0,.07-.07l.11-.11,0,0,.1-.11,0,0a.68.68,0,0,0,.18-.26l0,0c.08-.07.11-.18.18-.25l0,0s.07-.11.11-.14,0,0,0,0a1.28,1.28,0,0,0,.15-.25s0,0,0-.07,0-.07.08-.11a.33.33,0,0,0,.07-.18c0-.07,0-.07,0-.11a.25.25,0,0,1,.08-.14s0,0,0-.07a.44.44,0,0,0,.07-.22s0,0,0-.07a2.85,2.85,0,0,0,.14-.5v0l.11-.54v0a3.08,3.08,0,0,0,0-.53Z"/><path class="cls-3" d="M15.77,11.77A3,3,0,0,0,14.4,9.29L14,9.9a2.24,2.24,0,0,1,0,3.74l.39.61A2.94,2.94,0,0,0,15.77,11.77Z"/><path class="cls-3" d="M17.24,11.77a4.42,4.42,0,0,0-2-3.73l-.39.61a3.67,3.67,0,0,1,1.1,5.07,3.75,3.75,0,0,1-1.1,1.11l.39.61A4.3,4.3,0,0,0,17.24,11.77Z"/><path class="cls-3" d="M12.86,10.62a1.14,1.14,0,0,0-1.15,1.12v0a1.16,1.16,0,0,0,.72,1.08V19.5h.9V12.85A1.12,1.12,0,0,0,14,11.77,1.22,1.22,0,0,0,12.86,10.62Z"/><path class="cls-3" d="M9.52,15.73c-.07-.08-.15-.11-.22-.18l0,0-.18-.18v0a3.85,3.85,0,0,1-.58-.75h0c0-.07-.11-.18-.14-.25a0,0,0,0,0,0,0A.89.89,0,0,0,8.19,14v0l-.11-.28h0c0-.07-.07-.18-.11-.25s0-.08,0-.11a.52.52,0,0,0-.08-.18c0-.07,0-.07,0-.11a.54.54,0,0,1,0-.22.12.12,0,0,0,0-.1c0-.08,0-.18,0-.25v-.11a.41.41,0,0,0,0-.22v-.82a.54.54,0,0,1,0-.22V11c0-.07,0-.18,0-.25a.11.11,0,0,1,0-.11c0-.07,0-.14,0-.21s0-.07,0-.11a.52.52,0,0,1,.08-.18c0-.07,0-.07,0-.11a1.19,1.19,0,0,1,.11-.25v0l.11-.28v0a.77.77,0,0,1,.14-.25,0,0,0,0,1,0,0h0c0-.07.11-.18.14-.25h0a9.47,9.47,0,0,1,.58-.75l0,0,.18-.18,0,0c.07-.08.14-.11.21-.18l0,0a.64.64,0,0,1,.25-.18h0c.07-.07.18-.11.25-.18L9.7,6.67h0s-.07,0-.11.07,0,0-.07,0-.15.11-.22.14l0,0-.11.11s0,0-.07,0-.15.11-.18.18l-.08.07s-.07,0-.07.07l-.11.11,0,0-.11.11,0,0A.61.61,0,0,0,8.3,8l0,0c-.07.07-.11.18-.18.25l0,0a1.7,1.7,0,0,0-.1.14,0,0,0,0,1,0,0h0a1.23,1.23,0,0,0-.14.25s0,0,0,.07,0,.07-.07.11a.25.25,0,0,0-.07.18c0,.07,0,.07,0,.11a.37.37,0,0,1-.07.14s0,0,0,.07a.57.57,0,0,0-.07.22s0,0,0,.07a2.21,2.21,0,0,0-.15.5v0l-.11.54v0a2.45,2.45,0,0,0,0,.54v.58c0,.18,0,.36,0,.54v0l.11.54v0c0,.18.11.32.15.5s0,0,0,.07a.44.44,0,0,1,.07.22s0,0,0,.07a.23.23,0,0,0,.07.14.13.13,0,0,1,0,.11s.07.11.07.18,0,.07.07.11,0,0,0,.07a1.34,1.34,0,0,0,.14.25,0,0,0,0,0,0,0A1.7,1.7,0,0,1,8,15v0c.08.07.11.18.18.25l0,0c.07.08.14.18.22.26v0l.1.11,0,0,.11.1s.07,0,.07.07l.07.08.18.18.07.07.11.11.11.1a1.34,1.34,0,0,0,.14.11s.07,0,.11.07.07,0,.07.08h0l0,0,.39-.58h0A1.87,1.87,0,0,1,9.52,15.73Z"/><path class="cls-3" d="M11.67,9.9l-.39-.61a2.92,2.92,0,0,0,0,5l.39-.61a2.19,2.19,0,0,1-1-1.87A2.11,2.11,0,0,1,11.67,9.9Z"/><path class="cls-3" d="M9.16,11.77a3.68,3.68,0,0,1,1.69-3.09l-.4-.61a4.43,4.43,0,0,0-2,3.74,4.48,4.48,0,0,0,2,3.74l.4-.62A3.9,3.9,0,0,1,9.16,11.77Z"/></g></g></svg>