<svg xmlns="http://www.w3.org/2000/svg" width="25.72" height="25.72" viewBox="0 0 25.72 25.72"><defs><style>.cls-1{fill:none;}.cls-2{fill:#ff9100;}.cls-3{fill:#ffdf5a;}</style></defs><title>network3</title><g id="레이어_2" data-name="레이어 2"><g id="레이어_1-2" data-name="레이어 1"><circle class="cls-1" cx="12.86" cy="12.86" r="12.86"/><circle class="cls-2" cx="12.86" cy="12.86" r="9.04"/><path class="cls-3" d="M17.77,11.74v0c0-.15,0-.3,0-.46v0l-.09-.45v0c0-.15-.09-.27-.12-.42s0,0,0-.06a.55.55,0,0,1-.06-.18s0,0,0-.06a.23.23,0,0,0-.06-.12.11.11,0,0,1,0-.09s-.06-.09-.06-.15,0-.06-.06-.09,0,0,0-.06a1.13,1.13,0,0,1-.12-.21,0,0,0,0,0,0,0,1.46,1.46,0,0,1-.09-.13v0c-.06-.06-.09-.15-.15-.21l0,0-.18-.21v0l-.09-.09,0,0-.09-.09s-.07,0-.07-.06l-.06-.06-.15-.15L16,8.09,15.93,8l-.09-.09-.12-.09s-.06,0-.09-.06-.06,0-.06-.06h0l0,0-.33.48h0c.15.09.27.21.42.3l0,0,.18.15,0,0,.15.15v0a3.75,3.75,0,0,1,.49.64h0l.12.21a0,0,0,0,0,0,0,.63.63,0,0,0,.12.21v0c0,.09.06.15.09.24h0c0,.06.06.15.09.21s0,.06,0,.09a.51.51,0,0,0,.06.15c0,.06,0,.06,0,.09a.57.57,0,0,1,0,.18.09.09,0,0,0,0,.09c0,.06,0,.15,0,.21v.1a.29.29,0,0,0,0,.18v.69a.57.57,0,0,1,0,.18v.09c0,.06,0,.15,0,.21a.14.14,0,0,1,0,.09c0,.06,0,.12,0,.18s0,.06,0,.09a.51.51,0,0,1-.06.15c0,.06,0,.06,0,.09a1.09,1.09,0,0,1-.09.21v0c0,.09-.06.15-.09.24v0c0,.06-.06.15-.09.21a0,0,0,0,1,0,0l-.12.21h0c-.15.21-.31.42-.49.63l0,0-.15.15,0,0-.18.15,0,0a.51.51,0,0,1-.21.15h0c-.06.06-.15.09-.21.15l.33.52h0s.06,0,.09-.06,0,0,.06,0,.12-.09.18-.12l0,0,.09-.09s0,0,.06,0,.12-.1.15-.16l.06-.06s.06,0,.06-.06l.1-.09,0,0,.09-.09,0,0a.66.66,0,0,0,.15-.21l0,0c.06-.06.09-.15.15-.21l0,0s.06-.09.09-.12a0,0,0,0,1,0,0,2.25,2.25,0,0,0,.12-.21s0,0,0-.06,0-.06.06-.09a.23.23,0,0,0,.06-.15c0-.06,0-.06,0-.09a.23.23,0,0,1,.06-.12s0,0,0-.06a.64.64,0,0,0,.06-.18s0,0,0-.06a3,3,0,0,0,.12-.43v0l.09-.45v0a1.71,1.71,0,0,0,0-.45Z"/><path class="cls-3" d="M15.3,12a2.45,2.45,0,0,0-1.14-2.08l-.34.51a1.88,1.88,0,0,1,.54,2.6,1.71,1.71,0,0,1-.54.53l.34.52A2.47,2.47,0,0,0,15.3,12Z"/><path class="cls-3" d="M16.54,12a3.77,3.77,0,0,0-1.69-3.14l-.33.52a3.07,3.07,0,0,1,.92,4.25,3,3,0,0,1-.92.93l.33.51A3.58,3.58,0,0,0,16.54,12Z"/><path class="cls-3" d="M12.86,11a1,1,0,0,0-1,.94v0a1,1,0,0,0,.61.9v5.58h.75V12.85a.93.93,0,0,0,.6-.9A1,1,0,0,0,12.86,11Z"/><path class="cls-3" d="M10.06,15.26c-.06-.06-.12-.09-.18-.15l0,0-.16-.15v0a3.74,3.74,0,0,1-.48-.63h0l-.12-.21a0,0,0,0,0,0,0,.72.72,0,0,0-.12-.21v0c0-.09-.06-.15-.09-.25h0l-.09-.21c0-.06,0-.06,0-.09a.51.51,0,0,0-.06-.15c0-.06,0-.06,0-.09a.36.36,0,0,1,0-.18.16.16,0,0,0,0-.09c0-.06,0-.15,0-.21v-.09a.57.57,0,0,0,0-.18v-.69a.27.27,0,0,1,0-.18v-.1c0-.06,0-.15,0-.21a.16.16,0,0,1,0-.09c0-.06,0-.12,0-.18s0-.06,0-.09a.51.51,0,0,1,.06-.15c0-.06,0-.06,0-.09a1.09,1.09,0,0,1,.09-.21v0c0-.09.06-.15.09-.24v0a.72.72,0,0,1,.12-.21,0,0,0,0,1,0,0h0l.12-.21h0c.15-.21.3-.43.48-.64l0,0,.16-.15,0,0,.18-.15,0,0a.54.54,0,0,1,.21-.15h0c.06-.06.15-.09.21-.15l-.33-.51h0l-.09.06s0,0-.06,0-.12.09-.18.12l0,0L9.75,8s0,0-.06,0-.12.09-.15.15l-.06.06s-.06,0-.06.06l-.09.09,0,0-.09.09,0,0A.62.62,0,0,0,9,8.75l0,0c-.06.06-.09.15-.15.21l0,0s-.06.09-.09.12,0,0,0,0h0a.72.72,0,0,0-.12.21s0,0,0,.06,0,.06-.06.09a.23.23,0,0,0-.06.15c0,.06,0,.06,0,.09a.23.23,0,0,1-.06.12s0,0,0,.06a.3.3,0,0,0-.06.18s0,0,0,.06a1.66,1.66,0,0,0-.12.42v0L8,11.1v0a1.75,1.75,0,0,0,0,.46v.48c0,.15,0,.3,0,.45v0L8.1,13v0c0,.15.09.27.12.42s0,0,0,.06a.6.6,0,0,1,.06.19s0,0,0,.06a.23.23,0,0,0,.06.12.11.11,0,0,1,0,.09s.06.09.06.15,0,.06.06.09,0,0,0,.06a1.72,1.72,0,0,0,.12.21,0,0,0,0,0,0,0s.06.09.09.12v0c.06.06.09.15.15.21l0,0c.06.06.12.15.18.21v0l.09.09,0,0,.09.09s.06,0,.06.06l.06.06.15.15.06.06.1.1.09.09L10,16l.09.06s.06,0,.06.06h0l0,0,.33-.49h0A1.5,1.5,0,0,1,10.06,15.26Z"/><path class="cls-3" d="M11.86,10.38l-.33-.51a2.47,2.47,0,0,0,0,4.16l.33-.52A1.85,1.85,0,0,1,11,12,1.77,1.77,0,0,1,11.86,10.38Z"/><path class="cls-3" d="M9.75,12a3.1,3.1,0,0,1,1.42-2.59l-.33-.52a3.75,3.75,0,0,0,0,6.27l.33-.51A3.3,3.3,0,0,1,9.75,12Z"/></g></g></svg>