<svg xmlns="http://www.w3.org/2000/svg" width="25.72" height="25.72" viewBox="0 0 25.72 25.72"><defs><style>.cls-1{fill:#ff9100;}.cls-2{fill:#ffdf5a;}</style></defs><title>network1</title><g id="레이어_2" data-name="레이어 2"><g id="레이어_1-2" data-name="레이어 1"><circle class="cls-1" cx="12.86" cy="12.86" r="12.86"/><path class="cls-2" d="M19.85,11.26v0c0-.21-.05-.43-.05-.64v-.05l-.13-.64v0c0-.22-.12-.39-.17-.6,0,0,0,0,0-.09a.58.58,0,0,1-.09-.25c0-.05,0-.05,0-.09a.33.33,0,0,0-.08-.17.15.15,0,0,1-.05-.13s-.08-.13-.08-.21-.05-.09-.09-.13,0,0,0-.09a1.11,1.11,0,0,1-.17-.3,0,0,0,0,0-.05,0s-.08-.13-.12-.17v0c-.09-.08-.13-.21-.22-.3l0,0c-.09-.08-.17-.21-.26-.3v0L18,6.72l0,0-.13-.13s-.08,0-.08-.09l-.09-.08-.21-.22-.09-.08L17.23,6l-.13-.13-.17-.13s-.08,0-.13-.09-.08,0-.08-.08h0l0,0-.47.69h0c.22.13.39.3.6.43l.05,0c.08.08.17.13.25.21l0,.05.21.21v0a6,6,0,0,1,.69.9h0a2.91,2.91,0,0,0,.17.3,0,0,0,0,0,0,.05,1.11,1.11,0,0,0,.17.3v0c0,.13.09.21.13.34h0c0,.09.09.22.13.3s0,.09,0,.13a.67.67,0,0,0,.09.22c0,.08,0,.08,0,.12a.57.57,0,0,1,0,.26.15.15,0,0,0,.05.13c0,.09,0,.21,0,.3v.13A.59.59,0,0,0,19,11v1a.57.57,0,0,1,0,.26v.13c0,.08,0,.21,0,.3a.18.18,0,0,1-.05.13c0,.08,0,.17,0,.25s0,.09,0,.13a1,1,0,0,1-.09.22c0,.08,0,.08,0,.12a1.43,1.43,0,0,1-.13.3v.05c0,.13-.09.21-.13.34v0a2.71,2.71,0,0,1-.13.3,0,0,0,0,1,0,0c0,.08-.13.21-.17.3h0c-.22.3-.43.6-.69.9l0,0-.21.21,0,.05c-.08.08-.17.12-.25.21l-.05,0a.73.73,0,0,1-.3.22h0c-.08.08-.21.13-.3.21l.47.73h0s.09,0,.13-.08.05-.05.09-.05.17-.13.26-.17l0,0,.13-.13s0,0,.08,0,.17-.13.22-.22l.08-.08c.05-.05.09-.05.09-.09l.13-.13,0,0,.13-.13,0,0a.81.81,0,0,0,.22-.3l0-.05c.08-.08.13-.21.21-.3l0,0s.08-.13.12-.17a0,0,0,0,1,.05,0c.06-.1.12-.2.17-.3S19,15,19,15s0-.08.09-.13a.33.33,0,0,0,.08-.21c0-.09.05-.09.05-.13a.33.33,0,0,1,.08-.17s0,0,0-.09a.54.54,0,0,0,.09-.25s0,0,0-.09a2.43,2.43,0,0,0,.17-.6v0l.13-.65v0a3.45,3.45,0,0,0,.05-.64Z"/><path class="cls-2" d="M16.33,11.56a3.5,3.5,0,0,0-1.63-3l-.47.72A2.68,2.68,0,0,1,15,13a2.75,2.75,0,0,1-.76.76l.47.73A3.51,3.51,0,0,0,16.33,11.56Z"/><path class="cls-2" d="M18.09,11.56a5.32,5.32,0,0,0-2.4-4.45l-.47.72a4.39,4.39,0,0,1,0,7.38l.47.72A5.12,5.12,0,0,0,18.09,11.56Z"/><path class="cls-2" d="M12.86,10.19a1.35,1.35,0,0,0-1.37,1.34v0a1.41,1.41,0,0,0,.85,1.29v7.93h1.08V12.85a1.36,1.36,0,0,0,.85-1.29A1.45,1.45,0,0,0,12.86,10.19Z"/><path class="cls-2" d="M8.87,16.28c-.08-.09-.17-.13-.25-.22l0,0-.21-.21v-.05a5.11,5.11,0,0,1-.69-.9h0c0-.08-.13-.21-.17-.3a0,0,0,0,0,0,0,1.11,1.11,0,0,0-.17-.3v0c0-.13-.09-.22-.13-.35h0c0-.08-.09-.21-.13-.3s0-.08,0-.12a.84.84,0,0,0-.09-.22c0-.08,0-.08,0-.13a.44.44,0,0,1,0-.25.15.15,0,0,0-.05-.13c0-.09,0-.22,0-.3v-.13a.57.57,0,0,0,0-.26V11a.46.46,0,0,1,0-.26v-.13c0-.09,0-.21,0-.3a.17.17,0,0,1,.05-.13c0-.08,0-.17,0-.26s0-.08,0-.12A.59.59,0,0,1,7,9.59c0-.08,0-.08,0-.13a2.08,2.08,0,0,1,.13-.3v0c0-.13.08-.21.13-.34v0a1.28,1.28,0,0,1,.17-.3,0,0,0,0,1,0,0h0c0-.08.13-.21.17-.3h0c.22-.3.43-.6.69-.9l0,0,.22-.22,0,0a2.65,2.65,0,0,1,.26-.21l0,0a.81.81,0,0,1,.3-.21h0c.08-.09.21-.13.3-.22l-.47-.72h0c-.05,0-.09,0-.13.08s0,0-.09,0-.17.13-.25.18l0,0L8.44,6s0,0-.08,0-.17.13-.22.21l-.08.09S8,6.33,8,6.38l-.13.12,0,0-.13.13,0,0a.63.63,0,0,0-.21.3l0,0c-.08.09-.13.22-.21.3l0,0A1.09,1.09,0,0,0,7,7.58a0,0,0,0,1,0,0h0a2.14,2.14,0,0,0-.17.3s0,0,0,.09,0,.08-.09.12a.36.36,0,0,0-.08.22c0,.08,0,.08,0,.13a.35.35,0,0,1-.09.17s0,0,0,.08A.62.62,0,0,0,6.3,9s0,0,0,.09a2.43,2.43,0,0,0-.17.6v0L6,10.36v.05a2.72,2.72,0,0,0,0,.64v.68c0,.22,0,.43,0,.65v0l.13.64v0c0,.21.13.38.17.6,0,0,0,0,0,.08a.62.62,0,0,1,.09.26s0,0,0,.08a.31.31,0,0,0,.09.18.15.15,0,0,1,0,.12c0,.05.08.13.08.22s.05.08.09.13,0,0,0,.08a2,2,0,0,0,.17.3,0,0,0,0,0,0,.05s.08.12.13.17v0c.08.09.12.21.21.3l0,0c.09.09.17.22.26.3v.05l.13.12,0,.05.13.13s.09,0,.09.08l.08.09.22.21.08.09.13.13.13.13s.13.08.17.12.09,0,.13.09.08,0,.08.09H9l.05-.05.47-.68h0A2.35,2.35,0,0,1,8.87,16.28Z"/><path class="cls-2" d="M11.44,9.33,11,8.61a3.5,3.5,0,0,0-1.09,4.82A3.54,3.54,0,0,0,11,14.52l.47-.73a2.66,2.66,0,0,1-1.2-2.23A2.58,2.58,0,0,1,11.44,9.33Z"/><path class="cls-2" d="M8.44,11.56a4.41,4.41,0,0,1,2-3.68L10,7.15a5.33,5.33,0,0,0,0,8.91l.47-.73A4.68,4.68,0,0,1,8.44,11.56Z"/></g></g></svg>