<svg xmlns="http://www.w3.org/2000/svg" width="25.72" height="25.72" viewBox="0 0 25.72 25.72"><defs><style>.cls-1{fill:none;}.cls-2{fill:#f46300;}.cls-3{fill:#ffb769;}</style></defs><title>speaker3</title><g id="레이어_2" data-name="레이어 2"><g id="레이어_1-2" data-name="레이어 1"><circle class="cls-1" cx="12.86" cy="12.86" r="12.86"/><circle class="cls-2" cx="12.86" cy="12.86" r="9.04"/><path class="cls-3" d="M14.76,11.74l.54-.54a2.35,2.35,0,0,1,0,3.32l0,0a7.68,7.68,0,0,1-.54-.58A1.61,1.61,0,0,0,14.76,11.74Z"/><path class="cls-3" d="M16.42,15.66l-.55-.54a3.14,3.14,0,0,0,0-4.45h0l.55-.54a3.92,3.92,0,0,1,0,5.54Z"/><path class="cls-3" d="M17,16.2l.54.55a5.5,5.5,0,0,0,0-7.77l0,0c-.18.18-.36.36-.54.57A4.74,4.74,0,0,1,17,16.2Z"/><polygon class="cls-3" points="8.58 10.6 6.56 10.6 6.56 12.86 6.56 15.12 8.58 15.12 8.58 10.6"/><path class="cls-3" d="M12.65,7.37a1.35,1.35,0,0,0-.6.4L8.85,10.6v4.55L12.05,18a1.26,1.26,0,0,0,.6.39.48.48,0,0,0,.51-.45v-10a.5.5,0,0,0-.46-.52Z"/></g></g></svg>