<svg xmlns="http://www.w3.org/2000/svg" width="25.72" height="25.72" viewBox="0 0 25.72 25.72"><defs><style>.cls-1{fill:#f46300;}.cls-2{fill:#ffb769;}</style></defs><title>speaker1</title><g id="레이어_2" data-name="레이어 2"><g id="레이어_1-2" data-name="레이어 1"><circle class="cls-1" cx="12.86" cy="12.86" r="12.86"/><path class="cls-2" d="M15.56,11.27l.77-.77a3.34,3.34,0,0,1,0,4.72l0,0c-.26-.26-.51-.51-.77-.81A2.28,2.28,0,0,0,15.56,11.27Z"/><path class="cls-2" d="M17.92,16.85l-.77-.78a4.47,4.47,0,0,0,0-6.32v0L17.92,9a5.57,5.57,0,0,1,0,7.88Z"/><path class="cls-2" d="M18.73,17.62l.77.77a7.81,7.81,0,0,0,.05-11l-.05,0c-.25.25-.51.51-.77.81A6.75,6.75,0,0,1,18.73,17.62Z"/><polygon class="cls-2" points="6.77 9.64 3.9 9.64 3.9 12.86 3.9 16.07 6.77 16.07 6.77 9.64"/><path class="cls-2" d="M12.56,5.06a1.82,1.82,0,0,0-.86.56l-4.54,4v6.48l4.54,4a1.88,1.88,0,0,0,.86.55.68.68,0,0,0,.73-.64V5.79a.69.69,0,0,0-.66-.73Z"/></g></g></svg>