<svg xmlns="http://www.w3.org/2000/svg" width="25.72" height="25.72" viewBox="0 0 25.72 25.72"><defs><style>.cls-1{fill:none;}.cls-2{fill:#f46300;}.cls-3{fill:#ffb769;}</style></defs><title>speaker2</title><g id="레이어_2" data-name="레이어 2"><g id="레이어_1-2" data-name="레이어 1"><circle class="cls-1" cx="12.86" cy="12.86" r="12.86"/><circle class="cls-2" cx="12.86" cy="12.86" r="10.78"/><path class="cls-3" d="M15.12,11.53l.65-.65a2.81,2.81,0,0,1,0,4l0,0c-.22-.21-.43-.43-.65-.68A1.91,1.91,0,0,0,15.12,11.53Z"/><path class="cls-3" d="M17.1,16.2l-.65-.65a3.75,3.75,0,0,0,0-5.3h0l.65-.65a4.67,4.67,0,0,1,0,6.61Z"/><path class="cls-3" d="M17.78,16.85l.65.64a6.54,6.54,0,0,0,0-9.26l0,0c-.22.21-.43.43-.65.68A5.67,5.67,0,0,1,17.78,16.85Z"/><polygon class="cls-3" points="7.76 10.16 5.35 10.16 5.35 12.86 5.35 15.55 7.76 15.55 7.76 10.16"/><path class="cls-3" d="M12.61,6.32a1.59,1.59,0,0,0-.72.47L8.08,10.16v5.43L11.89,19a1.59,1.59,0,0,0,.72.47.59.59,0,0,0,.61-.54v-12a.59.59,0,0,0-.55-.61Z"/></g></g></svg>