<svg xmlns="http://www.w3.org/2000/svg" viewBox="0 0 60 60"><defs><style>.cls-1{fill:#008380;}.cls-2{fill:#77d4d2;}</style></defs><title>자산 8</title><g id="레이어_2" data-name="레이어 2"><g id="레이어_1-2" data-name="레이어 1"><circle class="cls-1" cx="30" cy="30" r="30"/><path class="cls-2" d="M36.29,26.3l1.85-1.85a7.85,7.85,0,0,1,0,11.1L36.29,33.7A5.23,5.23,0,0,0,36.29,26.3Z"/><path class="cls-2" d="M41.84,39.25,40,37.4a10.46,10.46,0,0,0,0-14.8l1.85-1.85A13.08,13.08,0,0,1,41.84,39.25Z"/><path class="cls-2" d="M43.69,41.1l1.85,1.85a18.31,18.31,0,0,0,0-25.89L43.69,18.9A15.69,15.69,0,0,1,43.69,41.1Z"/><polygon class="cls-2" points="15.79 22.48 9.1 22.48 9.1 30 9.1 37.51 15.79 37.51 15.79 22.48"/><path class="cls-2" d="M29.36,11.78a4.49,4.49,0,0,0-2,1.26L16.79,22.47V37.53L27.35,47a4.49,4.49,0,0,0,2,1.26A1.58,1.58,0,0,0,31,46.64V13.36A1.58,1.58,0,0,0,29.36,11.78Z"/></g></g></svg>