<svg xmlns="http://www.w3.org/2000/svg" viewBox="0 0 60 60"><defs><style>.cls-1{fill:#008380;}.cls-2{fill:#77d4d2;}</style></defs><title>자산 3</title><g id="레이어_2" data-name="레이어 2"><g id="레이어_1-2" data-name="레이어 1"><circle class="cls-1" cx="30" cy="30" r="30"/><rect class="cls-2" x="8.5" y="29.2" width="4.8" height="1.7"/><path class="cls-2" d="M49.7,25V22.7a4.59,4.59,0,0,0-4.6-4.6H43V42h2.1a4.59,4.59,0,0,0,4.6-4.6V35.1h1.9v-10H49.7Z"/><rect class="cls-2" x="13.3" y="26.1" width="2" height="7.8"/><path class="cls-2" d="M19.9,18.1a4.59,4.59,0,0,0-4.6,4.6V37.3a4.59,4.59,0,0,0,4.6,4.6h22V18.1Z"/><rect class="cls-2" x="8.45" y="29.2" width="4.8" height="1.7"/><path class="cls-2" d="M49.65,25.1V22.8a4.59,4.59,0,0,0-4.6-4.6h-2.1V42.1h2.1a4.59,4.59,0,0,0,4.6-4.6V35.2h1.9v-10h-1.9Z"/><rect class="cls-2" x="13.25" y="26.1" width="2" height="7.8"/><path class="cls-2" d="M19.95,18.1a4.59,4.59,0,0,0-4.6,4.6V37.3a4.59,4.59,0,0,0,4.6,4.6h22V18h-22Z"/><path class="cls-1" d="M38.65,28.9l-2-.6v-.2c0-.1,0-.1-.1-.2v-.1c0-.1,0-.1-.1-.2a.1.1,0,0,0-.1-.1c0-.1,0-.1-.1-.1s0-.1-.1-.2a.1.1,0,0,0-.1-.1c0-.1-.1-.1-.1-.2a.1.1,0,0,0-.1-.1v-.1l1-1.9c.2-.3,0-.5,0-.6l-.4-.4-.3-.3-.3-.3a.44.44,0,0,0-.6,0l-1.9,1h-.1a.1.1,0,0,1-.1-.1c-.1,0-.1-.1-.2-.1a.1.1,0,0,1-.1-.1c-.1,0-.1-.1-.2-.1a.1.1,0,0,1-.1-.1.31.31,0,0,1-.2-.1c-.1,0-.1,0-.2-.1H32c-.1,0-.1,0-.2-.1h-.2l-.6-2a.51.51,0,0,0-.5-.4H29a.6.6,0,0,0-.5.4l-.6,2h-.2c-.1,0-.1,0-.2.1h-.1c-.1,0-.1,0-.2.1s-.1,0-.1.1a.1.1,0,0,0-.1.1c-.1,0-.1,0-.2.1a.1.1,0,0,0-.1.1c-.1,0-.1.1-.2.1a.1.1,0,0,0-.1.1h-.1l-1.9-1c-.3-.2-.5,0-.6,0l-.4.4-.3.3-.3.3a.44.44,0,0,0,0,.6l1,1.9v.1a.1.1,0,0,1-.1.1c0,.1-.1.1-.1.2a.1.1,0,0,1-.1.1c0,.1,0,.1-.1.2a7961800628913,7961800628913,0,0,1-.2.2c0,.1,0,.1-.1.2v.1c0,.1,0,.1-.1.2v.2l-2,.6a.51.51,0,0,0-.4.5v1.5a.6.6,0,0,0,.4.5l2,.6v.2c0,.1,0,.1.1.2v.1c0,.1,0,.1.1.2s0,.1.1.2a.1.1,0,0,0,.1.1c0,.1.1.1.1.2a.1.1,0,0,0,.1.1c0,.1.1.1.1.2a.1.1,0,0,0,.1.1v.1l-1,1.9c-.2.3,0,.5,0,.6l.4.4.3.3.3.3a.44.44,0,0,0,.6,0l1.9-1h.1a.1.1,0,0,1,.1.1c.1,0,.1.1.2.1a.1.1,0,0,1,.1.1c.1,0,.1.1.2.1a2653933410282.4,2653933410282.4,0,0,1,.2.2c.1,0,.1,0,.2.1h.1c.1,0,.1,0,.2.1h.2l.6,2a.51.51,0,0,0,.5.4h1.5A.6.6,0,0,0,31,39l.6-2h.5c.1,0,.1,0,.2-.1s.1,0,.2-.1a.1.1,0,0,0,.1-.1c.1,0,.1-.1.2-.1a.1.1,0,0,0,.1-.1c.1,0,.1-.1.2-.1a.1.1,0,0,0,.1-.1h.1l1.9,1c.3.2.5,0,.6,0l.4-.4.3-.3.3-.3a.44.44,0,0,0,0-.6l-1-1.9v-.2h0c0-.1.1-.1.1-.2v-.1h0c0-.1,0-.1.1-.2a.1.1,0,0,1,.1-.1c0-.1,0-.1.1-.2s0-.1.1-.2v-.1c0-.1,0-.1.1-.2v-.2l2-.6a.51.51,0,0,0,.4-.5V29.5C39.05,29.2,39.05,29,38.65,28.9Z"/><circle class="cls-2" cx="30.05" cy="30.1" r="3.2"/></g></g></svg>