<svg xmlns="http://www.w3.org/2000/svg" viewBox="0 0 60 60"><defs><style>.cls-1{fill:#008380;}.cls-2{fill:#77d4d2;}</style></defs><title>자산 6</title><g id="레이어_2" data-name="레이어 2"><g id="레이어_1-2" data-name="레이어 1"><circle class="cls-1" cx="30" cy="30" r="30"/><path class="cls-2" d="M49.4,12.4H10.7a2.22,2.22,0,0,0-2.2,2.2v28a2.22,2.22,0,0,0,2.2,2.2H49.4a2.22,2.22,0,0,0,2.2-2.2v-28A2.22,2.22,0,0,0,49.4,12.4Zm-.9,28.1h-37V14.8h37Z"/><rect class="cls-2" x="12.5" y="15.9" width="35" height="23.7"/><path class="cls-2" d="M39.7,47.7H20.3a2,2,0,0,0-2,2H41.6A1.86,1.86,0,0,0,39.7,47.7Z"/><rect class="cls-2" x="29.1" y="44.7" width="1.9" height="3"/></g></g></svg>