<svg xmlns="http://www.w3.org/2000/svg" viewBox="0 0 60 60"><defs><style>.cls-1{fill:#ff8e1d;}.cls-2{opacity:0.7;}.cls-3{fill:#fff;}</style></defs><title>자산 13</title><g id="레이어_2" data-name="레이어 2"><g id="레이어_1-2" data-name="레이어 1"><circle class="cls-1" cx="30" cy="30" r="30"/><g class="cls-2"><path class="cls-3" d="M36.3,26.3l1.8-1.8a7.79,7.79,0,0,1,0,11.1c-.6-.6-1.2-1.2-1.8-1.9A5.31,5.31,0,0,0,36.3,26.3Z"/><path class="cls-3" d="M41.8,39.3,40,37.5a10.44,10.44,0,0,0,0-14.8l1.8-1.8A13,13,0,0,1,41.8,39.3Z"/><path class="cls-3" d="M43.7,41.1l1.8,1.8a18.23,18.23,0,0,0,0-25.9c-.6.6-1.2,1.2-1.8,1.9A15.75,15.75,0,0,1,43.7,41.1Z"/><polygon class="cls-3" points="15.8 22.5 9.1 22.5 9.1 30 9.1 37.5 15.8 37.5 15.8 22.5"/><path class="cls-3" d="M29.3,11.8a4.45,4.45,0,0,0-2,1.3L16.7,22.5V37.6L27.3,47a4.45,4.45,0,0,0,2,1.3A1.6,1.6,0,0,0,31,46.7V13.5A1.62,1.62,0,0,0,29.3,11.8Z"/></g></g></g></svg>