<svg xmlns="http://www.w3.org/2000/svg" viewBox="0 0 60 60"><defs><style>.cls-1{fill:#ff8e1d;}.cls-2{opacity:0.7;}.cls-3{fill:#fff;}</style></defs><title>자산 14</title><g id="레이어_2" data-name="레이어 2"><g id="레이어_1-2" data-name="레이어 1"><circle class="cls-1" cx="30" cy="30" r="30"/><g class="cls-2"><rect class="cls-3" x="17.7" y="41.9" width="24.8" height="2.7"/><path class="cls-3" d="M30.1,16.1h0a1,1,0,0,1-1-1V9.4a1,1,0,0,1,1-1h0a1,1,0,0,1,1,1v5.7A1.07,1.07,0,0,1,30.1,16.1Z"/><path class="cls-3" d="M23.4,17.9h0a.9.9,0,0,1-1.3-.4l-2.9-5a.9.9,0,0,1,.4-1.3h0a.9.9,0,0,1,1.3.4l2.9,5A1.13,1.13,0,0,1,23.4,17.9Z"/><path class="cls-3" d="M18.5,22.8h0a1,1,0,0,1-1.3.4l-5-2.9a1,1,0,0,1-.4-1.3h0a1,1,0,0,1,1.3-.4l5,2.9A1,1,0,0,1,18.5,22.8Z"/><path class="cls-3" d="M41.6,22.8h0a.9.9,0,0,1,.4-1.3l5-2.9a.9.9,0,0,1,1.3.4h0a.9.9,0,0,1-.4,1.3l-5,2.9A1.13,1.13,0,0,1,41.6,22.8Z"/><path class="cls-3" d="M36.7,17.9h0a1,1,0,0,1-.4-1.3l2.9-5a1,1,0,0,1,1.3-.4h0a1,1,0,0,1,.4,1.3l-2.9,5A1,1,0,0,1,36.7,17.9Z"/><path class="cls-3" d="M23.4,45.6v4.8a1.2,1.2,0,1,0,2.4,0V45.6Z"/><path class="cls-3" d="M34.3,45.6v4.8a1.2,1.2,0,1,0,2.4,0V45.6Z"/><path class="cls-3" d="M40.6,40.9V29.5a10.6,10.6,0,0,0-21.2,0V40.9Z"/></g></g></g></svg>