<svg xmlns="http://www.w3.org/2000/svg" viewBox="0 0 60 60"><defs><style>.cls-1{fill:#7c64ed;}.cls-2{fill:#fff;opacity:0.7;}</style></defs><title>자산 17</title><g id="레이어_2" data-name="레이어 2"><g id="레이어_1-2" data-name="레이어 1"><circle class="cls-1" cx="30" cy="30" r="30"/><path class="cls-2" d="M30,9.6h0a1,1,0,0,0-1,1v3.1a1,1,0,0,0,1,1h0a1,1,0,0,0,1-1V10.6A1.07,1.07,0,0,0,30,9.6Z"/><path class="cls-2" d="M15.6,14.8h0a.85.85,0,0,0-.1,1.3l2,2.4a.85.85,0,0,0,1.3.1h0a.85.85,0,0,0,.1-1.3l-2-2.4A.94.94,0,0,0,15.6,14.8Z"/><path class="cls-2" d="M8,28H8a1,1,0,0,0,.8,1.1l3,.5a1,1,0,0,0,1.1-.8h0a1,1,0,0,0-.8-1.1l-3-.5A1.08,1.08,0,0,0,8,28Z"/><path class="cls-2" d="M10.6,43.1h0a.89.89,0,0,0,1.3.3l2.7-1.5a.89.89,0,0,0,.3-1.3h0a.89.89,0,0,0-1.3-.3l-2.7,1.5A1,1,0,0,0,10.6,43.1Z"/><path class="cls-2" d="M49.3,43.1h0a1,1,0,0,0-.3-1.3l-2.7-1.5a1,1,0,0,0-1.3.3h0a1,1,0,0,0,.3,1.3L48,43.4A1,1,0,0,0,49.3,43.1Z"/><path class="cls-2" d="M52,28h0a1,1,0,0,0-1.1-.8l-3,.5a1,1,0,0,0-.8,1.1h0a1,1,0,0,0,1.1.8l3-.5A.89.89,0,0,0,52,28Z"/><path class="cls-2" d="M44.3,14.8h0a.94.94,0,0,0-1.3.1l-2,2.4a.93.93,0,0,0,.1,1.3h0a.94.94,0,0,0,1.3-.1l2-2.4C44.8,15.8,44.7,15.2,44.3,14.8Z"/><circle class="cls-2" cx="30" cy="31.9" r="14.4"/><circle class="cls-1" cx="24.2" cy="24.3" r="2.7"/></g></g></svg>