<svg xmlns="http://www.w3.org/2000/svg" viewBox="0 0 60 60"><defs><style>.cls-1{fill:#7c64ed;}.cls-2{opacity:0.7;}.cls-3{fill:#fff;}</style></defs><title>자산 19</title><g id="레이어_2" data-name="레이어 2"><g id="레이어_1-2" data-name="레이어 1"><circle class="cls-1" cx="30" cy="30" r="30"/><g class="cls-2"><path class="cls-3" d="M22.4,18.1H8.5V41.8H22.4a.9.9,0,0,0,.9-.9V19.1A1,1,0,0,0,22.4,18.1Z"/><path class="cls-3" d="M23.3,32.1v5.8a2.9,2.9,0,1,0,0-5.8Z"/><path class="cls-3" d="M23.3,22v5.8a2.9,2.9,0,1,0,0-5.8Z"/><circle class="cls-3" cx="28.55" cy="24.34" r="0.6" transform="translate(-3.04 44.57) rotate(-73.08)"/><circle class="cls-3" cx="30.6" cy="25.02" r="0.6" transform="translate(-2.28 46.96) rotate(-72.97)"/><circle class="cls-3" cx="32.8" cy="25.68" r="0.6" transform="translate(-1.31 49.58) rotate(-73.06)"/><circle class="cls-3" cx="34.92" cy="26.3" r="0.6" transform="matrix(0.29, -0.96, 0.96, 0.29, -0.41, 52.04)"/><circle class="cls-3" cx="37.15" cy="26.99" r="0.6" transform="translate(0.48 54.62) rotate(-72.99)"/><circle class="cls-3" cx="39.2" cy="27.6" r="0.6" transform="translate(1.37 57.04) rotate(-73.05)"/><circle class="cls-3" cx="41.42" cy="28.29" r="0.6" transform="translate(2.32 59.71) rotate(-73.12)"/><circle class="cls-3" cx="43.63" cy="28.94" r="0.6" transform="translate(3.21 62.21) rotate(-73.02)"/><circle class="cls-3" cx="45.71" cy="29.63" r="0.6" transform="translate(4.05 64.73) rotate(-73.08)"/><circle class="cls-3" cx="47.91" cy="30.3" r="0.6" transform="translate(-6.71 15.13) rotate(-16.79)"/><circle class="cls-3" cx="45.69" cy="30.89" r="0.6" transform="translate(-7.03 14.69) rotate(-16.98)"/><circle class="cls-3" cx="43.61" cy="31.62" r="0.6" transform="translate(-7.33 14.11) rotate(-16.97)"/><circle class="cls-3" cx="41.37" cy="32.22" r="0.6" transform="translate(-7.6 13.46) rotate(-16.95)"/><circle class="cls-3" cx="39.32" cy="32.92" r="0.6" transform="translate(-7.9 12.91) rotate(-16.97)"/><circle class="cls-3" cx="37.08" cy="33.52" r="0.6" transform="translate(-8.17 12.28) rotate(-16.97)"/><circle class="cls-3" cx="35.01" cy="34.17" r="0.6" transform="translate(-8.43 11.68) rotate(-16.94)"/><polygon class="cls-3" points="33.1 34.8 33.6 36.2 31.6 36.2 29.5 36.1 31.1 34.8 32.6 33.5 33.1 34.8"/><path class="cls-3" d="M51.4,36.6a.79.79,0,0,1-.8.8h0a.79.79,0,0,1-.8-.8V23.3a.79.79,0,0,1,.8-.8h0a.79.79,0,0,1,.8.8Z"/></g></g></g></svg>