<svg xmlns="http://www.w3.org/2000/svg" viewBox="0 0 60 60"><defs><style>.cls-1{fill:#fff;}.cls-2{fill:#00b401;}</style></defs><title>자산 7</title><g id="레이어_2" data-name="레이어 2"><g id="레이어_1-2" data-name="레이어 1"><circle class="cls-1" cx="30" cy="30" r="30"/><path class="cls-2" d="M37.6,22.19a16.22,16.22,0,0,0-7.44,1.49,8.78,8.78,0,0,0-3.67,3.58A14.32,14.32,0,0,0,25,33.83a3.4,3.4,0,0,0,.16,1.33.89.89,0,0,0,1.64,0c2-3.49,3.48-3.89,5.77-4,1.51-.08,3.37,0,5.05,0h1v-9Z"/><path class="cls-2" d="M38.13,44.27H18a2.5,2.5,0,0,1-2.5-2.5l0-15.83a2.5,2.5,0,0,1,2.5-2.5h4.5a2.5,2.5,0,0,1,0,5h-2l0,10.83h15.1v-.83A2.5,2.5,0,0,1,38.16,36h0a2.5,2.5,0,0,1,2.48,2.52l0,3.31A2.5,2.5,0,0,1,38.13,44.27Z"/><rect class="cls-2" x="36.58" y="22.03" width="4.58" height="7.5"/><path class="cls-2" d="M47,27.56a2,2,0,0,0,0-3.42l-9-6.26c-1.36-.94-2.47-.36-2.47,1.29V32.53c0,1.65,1.11,2.23,2.47,1.29Z"/><rect class="cls-2" x="20.08" y="23.45" width="4.99" height="4.99" rx="1.5" ry="1.5"/><rect class="cls-2" x="35.67" y="35.89" width="4.99" height="4.99" rx="1.5" ry="1.5"/></g></g></svg>