<svg xmlns="http://www.w3.org/2000/svg" viewBox="0 0 60 60"><defs><style>.cls-1{fill:#ffdc00;}.cls-2{opacity:0.7;}.cls-3{fill:#fff;}</style></defs><title>자산 20</title><g id="레이어_2" data-name="레이어 2"><g id="레이어_1-2" data-name="레이어 1"><circle class="cls-1" cx="30" cy="30" r="30"/><g class="cls-2"><path class="cls-3" d="M46.3,25.5v-.1c0-.5-.1-1-.1-1.5v-.1l-.3-1.5v-.1c-.1-.5-.3-.9-.4-1.4,0-.1,0-.1-.1-.2a1.42,1.42,0,0,1-.2-.6c0-.1-.1-.1-.1-.2s-.1-.3-.2-.4-.1-.2-.1-.3-.2-.3-.2-.5-.1-.2-.2-.3-.1-.1-.1-.2a4.35,4.35,0,0,1-.4-.7.1.1,0,0,0-.1-.1c-.1-.1-.2-.3-.3-.4v-.1c-.2-.2-.3-.5-.5-.7l-.1-.1c-.2-.2-.4-.5-.6-.7v-.1l-.3-.3-.1-.1-.3-.3c-.1-.1-.2-.1-.2-.2l-.2-.2-.5-.5-.2-.2-.3-.3-.3-.3c-.1-.1-.3-.2-.4-.3s-.2-.1-.3-.2-.2-.1-.2-.2h0l-.1.1-1.1,1.6h0c.5.3.9.7,1.4,1l.1.1c.2.2.4.3.6.5l.1.1.5.5v.1a11.6,11.6,0,0,1,1.6,2.1h0c.1.2.3.5.4.7a.1.1,0,0,0,.1.1,2.51,2.51,0,0,0,.4.7v.1c.1.3.2.5.3.8h0c.1.2.2.5.3.7s.1.2.1.3.1.3.2.5.1.2.1.3a1.27,1.27,0,0,1,.1.6.37.37,0,0,0,.1.3c0,.2.1.5.1.7v.3a1.27,1.27,0,0,0,.1.6v2.3a1.27,1.27,0,0,1-.1.6v.3c0,.2-.1.5-.1.7a.37.37,0,0,1-.1.3c0,.2-.1.4-.1.6s-.1.2-.1.3-.1.3-.2.5-.1.2-.1.3-.2.5-.3.7v.1c-.1.3-.2.5-.3.8v.1c-.1.2-.2.5-.3.7a.1.1,0,0,1-.1.1c-.1.2-.3.5-.4.7h0c-.5.7-1,1.4-1.6,2.1l-.1.1-.5.5-.1.1c-.2.2-.4.3-.6.5l-.1.1a1.79,1.79,0,0,1-.7.5h0c-.2.2-.5.3-.7.5l1.1,1.7h0c.1-.1.2-.1.3-.2s.1-.1.2-.1.4-.3.6-.4l.1-.1.3-.3c.1,0,.1-.1.2-.1.2-.2.4-.3.5-.5l.2-.2c.1-.1.2-.1.2-.2l.3-.3.1-.1.3-.3.1-.1a1.79,1.79,0,0,0,.5-.7l.1-.1c.2-.2.3-.5.5-.7l.1-.1c.1-.1.2-.3.3-.4a.1.1,0,0,1,.1-.1,4.35,4.35,0,0,0,.4-.7c0-.1.1-.1.1-.2s.1-.2.2-.3.2-.3.2-.5.1-.2.1-.3.1-.3.2-.4.1-.1.1-.2a1.42,1.42,0,0,0,.2-.6c0-.1,0-.1.1-.2a7.37,7.37,0,0,0,.4-1.4v-.1l.3-1.5v-.1a7.57,7.57,0,0,0,.1-1.5V25.5Z"/><path class="cls-3" d="M38.1,26.2a8.19,8.19,0,0,0-3.8-6.9L33.2,21a6.23,6.23,0,0,1,0,10.4l1.1,1.7A8.19,8.19,0,0,0,38.1,26.2Z"/><path class="cls-3" d="M42.2,26.2a12.4,12.4,0,0,0-5.6-10.4l-1.1,1.7a10.22,10.22,0,0,1,0,17.2l1.1,1.7A11.93,11.93,0,0,0,42.2,26.2Z"/><path class="cls-3" d="M30,23a3.16,3.16,0,0,0-3.2,3.2,3.28,3.28,0,0,0,2,3V47.7h2.5V29.2a3.17,3.17,0,0,0,2-3A3.38,3.38,0,0,0,30,23Z"/><path class="cls-3" d="M20.7,37.2c-.2-.2-.4-.3-.6-.5l-.1-.1-.5-.5V36a11.6,11.6,0,0,1-1.6-2.1h0c-.1-.2-.3-.5-.4-.7a.1.1,0,0,0-.1-.1,2.51,2.51,0,0,0-.4-.7v-.1c-.1-.3-.2-.5-.3-.8h0c-.1-.2-.2-.5-.3-.7s-.1-.2-.1-.3-.1-.3-.2-.5-.1-.2-.1-.3a1.27,1.27,0,0,1-.1-.6.37.37,0,0,0-.1-.3c0-.2-.1-.5-.1-.7v-.3a1.27,1.27,0,0,0-.1-.6V24.9a1.27,1.27,0,0,1,.1-.6V24c0-.2.1-.5.1-.7a.37.37,0,0,1,.1-.3c0-.2.1-.4.1-.6s.1-.2.1-.3.1-.3.2-.5.1-.2.1-.3.2-.5.3-.7v-.1c.1-.3.2-.5.3-.8v-.1a2.51,2.51,0,0,1,.4-.7.1.1,0,0,1,.1-.1c.1-.2.3-.5.4-.7h0c.5-.7,1-1.4,1.6-2.1l.1-.1.5-.5.1-.1c.2-.2.4-.3.6-.5l.1-.1a1.79,1.79,0,0,1,.7-.5h0c.2-.2.5-.3.7-.5L21.2,12h0c-.1.1-.2.1-.3.2s-.1.1-.2.1-.4.3-.6.4l-.1.1-.3.3c-.1,0-.1.1-.2.1-.2.2-.4.3-.5.5l-.2.2c-.1.1-.2.1-.2.2l-.3.3-.1.1-.3.3-.1.1a1.79,1.79,0,0,0-.5.7l-.1.1c-.2.2-.3.5-.5.7l-.1.1c-.1.1-.2.3-.3.4a.1.1,0,0,1-.1.1,4.35,4.35,0,0,0-.4.7c0,.1-.1.1-.1.2s-.1.2-.2.3-.2.3-.2.5-.1.2-.1.3-.1.3-.2.4-.1.1-.1.2a1.42,1.42,0,0,0-.2.6c0,.1,0,.1-.1.2a7.37,7.37,0,0,0-.4,1.4v.1l-.3,1.5v.1a7.57,7.57,0,0,0-.1,1.5v1.6c0,.5.1,1,.1,1.5v.1l.3,1.5v.1c.1.5.3.9.4,1.4,0,.1,0,.1.1.2a1.42,1.42,0,0,1,.2.6c0,.1.1.1.1.2s.1.3.2.4.1.2.1.3.2.3.2.5.1.2.2.3.1.1.1.2.3.5.4.7a.1.1,0,0,0,.1.1c.1.1.2.3.3.4v.1c.2.2.3.5.5.7l.1.1c.2.2.4.5.6.7v.1l.3.3.1.1.3.3c.1.1.2.1.2.2l.2.2.5.5.2.2.3.3.3.3c.1.1.3.2.4.3s.2.1.3.2.2.1.2.2h0l.1-.1,1.1-1.6h0a5.38,5.38,0,0,1-1.6-1Z"/><path class="cls-3" d="M26.7,21l-1.1-1.7a8.16,8.16,0,0,0,0,13.8l1.1-1.7a6.14,6.14,0,0,1-2.8-5.2A5.91,5.91,0,0,1,26.7,21Z"/><path class="cls-3" d="M19.7,26.2a10.26,10.26,0,0,1,4.7-8.6l-1.1-1.7a12.27,12.27,0,0,0-5.6,10.4,12.4,12.4,0,0,0,5.6,10.4L24.4,35A10.9,10.9,0,0,1,19.7,26.2Z"/></g></g></g></svg>