<svg xmlns="http://www.w3.org/2000/svg" viewBox="0 0 60 60"><defs><style>.cls-1{fill:#008380;}.cls-2{fill:#77d4d2;}</style></defs><title>자산 15</title><g id="레이어_2" data-name="레이어 2"><g id="레이어_1-2" data-name="레이어 1"><circle class="cls-1" cx="30" cy="30" r="30"/><path class="cls-2" d="M30,9.62h0a1,1,0,0,0-1,1v3.09a1,1,0,0,0,1,1h0a1,1,0,0,0,1-1V10.57A1,1,0,0,0,30,9.62Z"/><path class="cls-2" d="M15.65,14.84h0a1,1,0,0,0-.12,1.35l2,2.37a1,1,0,0,0,1.35.12h0A1,1,0,0,0,19,17.33L17,15A1,1,0,0,0,15.65,14.84Z"/><path class="cls-2" d="M8,28.07H8a1,1,0,0,0,.78,1.11l3,.54a1,1,0,0,0,1.11-.78h0a1,1,0,0,0-.78-1.11l-3-.54A1,1,0,0,0,8,28.07Z"/><path class="cls-2" d="M10.66,43.11h0a1,1,0,0,0,1.31.35l2.67-1.54A1,1,0,0,0,15,40.61h0a1,1,0,0,0-1.31-.35L11,41.81A1,1,0,0,0,10.66,43.11Z"/><path class="cls-2" d="M49.34,43.11h0A1,1,0,0,0,49,41.81l-2.67-1.54a1,1,0,0,0-1.31.35h0a1,1,0,0,0,.35,1.31L48,43.46A1,1,0,0,0,49.34,43.11Z"/><path class="cls-2" d="M52,28.07h0a1,1,0,0,0-1.11-.78l-3,.54a1,1,0,0,0-.78,1.11h0a1,1,0,0,0,1.11.78l3-.54A1,1,0,0,0,52,28.07Z"/><path class="cls-2" d="M44.35,14.84h0A1,1,0,0,0,43,15l-2,2.37a1,1,0,0,0,.12,1.35h0a1,1,0,0,0,1.35-.12l2-2.37A1,1,0,0,0,44.35,14.84Z"/><circle class="cls-2" cx="30" cy="31.95" r="14.43"/><circle class="cls-1" cx="24.19" cy="24.29" r="2.67"/></g></g></svg>