<svg xmlns="http://www.w3.org/2000/svg" viewBox="0 0 60 60"><defs><style>.cls-1{fill:#008380;}.cls-2{fill:#77d4d2;}</style></defs><title>자산 12</title><g id="레이어_2" data-name="레이어 2"><g id="레이어_1-2" data-name="레이어 1"><circle class="cls-1" cx="30" cy="30" r="30"/><path class="cls-2" d="M22.38,18.17H8.44V41.83H22.38a.93.93,0,0,0,.93-.94V19.1A.93.93,0,0,0,22.38,18.17Z"/><path class="cls-2" d="M23.28,32.12V38a2.92,2.92,0,0,0,0-5.83Z"/><path class="cls-2" d="M23.28,22v5.84a2.92,2.92,0,0,0,0-5.84Z"/><circle class="cls-2" cx="28.5" cy="24.39" r="0.64" transform="matrix(0.29, -0.96, 0.96, 0.29, -3.13, 44.55)"/><circle class="cls-2" cx="30.65" cy="25.04" r="0.64" transform="translate(-2.27 47.01) rotate(-72.97)"/><circle class="cls-2" cx="32.81" cy="25.7" r="0.64" transform="translate(-1.33 49.6) rotate(-73.06)"/><circle class="cls-2" cx="34.96" cy="26.35" r="0.64" transform="translate(-0.44 52.12) rotate(-73.06)"/><circle class="cls-2" cx="37.11" cy="27.01" r="0.64" transform="translate(0.43 54.6) rotate(-72.99)"/><circle class="cls-2" cx="39.27" cy="27.67" r="0.64" transform="translate(1.35 57.16) rotate(-73.05)"/><circle class="cls-2" cx="41.42" cy="28.32" r="0.64" transform="matrix(0.29, -0.96, 0.96, 0.29, 2.29, 59.73)"/><circle class="cls-2" cx="43.57" cy="28.98" r="0.64" transform="translate(3.13 62.19) rotate(-73.02)"/><circle class="cls-2" cx="45.73" cy="29.63" r="0.64" transform="translate(4.06 64.75) rotate(-73.08)"/><circle class="cls-2" cx="47.88" cy="30.29" r="0.64" transform="translate(-6.71 15.12) rotate(-16.79)"/><circle class="cls-2" cx="45.73" cy="30.95" r="0.64" transform="translate(-7.04 14.7) rotate(-16.98)"/><circle class="cls-2" cx="43.57" cy="31.6" r="0.64" transform="translate(-7.33 14.09) rotate(-16.97)"/><circle class="cls-2" cx="41.42" cy="32.26" r="0.64" transform="translate(-7.61 13.48) rotate(-16.95)"/><circle class="cls-2" cx="39.27" cy="32.92" r="0.64" transform="translate(-7.9 12.89) rotate(-16.97)"/><circle class="cls-2" cx="37.11" cy="33.57" r="0.64" transform="translate(-8.18 12.29) rotate(-16.97)"/><circle class="cls-2" cx="34.96" cy="34.23" r="0.64" transform="translate(-8.45 11.67) rotate(-16.94)"/><polygon class="cls-2" points="33.12 34.87 33.61 36.25 31.56 36.19 29.52 36.12 31.08 34.8 32.64 33.48 33.12 34.87"/><path class="cls-2" d="M51.4,36.67a.83.83,0,0,1-.83.83h0a.83.83,0,0,1-.83-.83V23.33a.83.83,0,0,1,.83-.83h0a.83.83,0,0,1,.83.83Z"/></g></g></svg>