<svg xmlns="http://www.w3.org/2000/svg" viewBox="0 0 60 60">
    <defs>
        <!-- <style>.cls-1{fill:#008380;}.cls-2{fill:#77d4d2;}</style> -->
        <style>.cls-1{fill:#FFFFFF;}.cls-2{fill:#ff9900;}</style>
    </defs>
    <title>자산 9</title>
    <g id="레이어_2" data-name="레이어 2">
        <g id="레이어_1-2" data-name="레이어 1">
            <circle class="cls-1" cx="30" cy="30" r="30"/>
            <path class="cls-2" d="M47.47,14.27H12.64a2,2,0,0,0-2,2v25.2a2,2,0,0,0,2,2H47.47a2,2,0,0,0,2-2V16.25A2,2,0,0,0,47.47,14.27Zm-.81,25.29H13.36V16.42h33.3Z"/>
            <rect class="cls-2" x="14.26" y="17.42" width="31.5" height="21.33"/>
            <path class="cls-2" d="M38.74,46H21.28a1.81,1.81,0,0,0-1.8,1.8h21A1.68,1.68,0,0,0,38.74,46Z"/>
            <rect class="cls-2" x="29.2" y="43.34" width="1.71" height="2.7"/>
        </g>
    </g>
</svg>