<svg xmlns="http://www.w3.org/2000/svg" viewBox="0 0 60 60"><defs><style>.cls-1{fill:#fff;}.cls-2{fill:#00b401;}.cls-3{fill:none;stroke:#00b401;stroke-linecap:round;stroke-linejoin:round;stroke-width:3px;}</style></defs><title>자산 4</title><g id="레이어_2" data-name="레이어 2"><g id="레이어_1-2" data-name="레이어 1"><circle class="cls-1" cx="30" cy="30" r="30"/><path class="cls-2" d="M36.43,22c-12.28,0-12,8.45-11.94,12.87v.53A.66.66,0,0,0,25,36l.17,0a.68.68,0,0,0,.58-.34c4-7.22,6.47-6.21,10.7-6.22h.95V22Z"/><path class="cls-2" d="M50.89,27.15a1.72,1.72,0,0,0,0-3.16l-11-6.8c-1.4-.87-2.55-.23-2.55,1.42V32.53c0,1.65,1.15,2.29,2.55,1.42Z"/><polyline class="cls-3" points="39.19 38.36 39.19 42.7 16.42 42.7 16.42 25.85 21.7 25.85"/><rect class="cls-2" x="37.38" y="22.03" width="4.58" height="7.5"/></g></g></svg>