<svg xmlns="http://www.w3.org/2000/svg" viewBox="0 0 60 60">
    <defs>
        <!-- <style>.cls-1{fill:#008380;}.cls-2{fill:#77d4d2;}</style> -->
        <style>.cls-1{fill:#FFFFFF;}.cls-2{fill:#ffcc00;}</style>
    </defs>
    <title>자산 14</title>
    <g id="레이어_2" data-name="레이어 2">
        <g id="레이어_1-2" data-name="레이어 1">
            <circle class="cls-1" cx="30" cy="30" r="30"/>
            <path class="cls-2" d="M46.37,25.43s0-.09,0-.14c0-.5-.07-1-.14-1.46v-.07q-.11-.75-.29-1.48l0-.07q-.18-.71-.41-1.41l-.06-.16c-.08-.21-.15-.42-.24-.63l-.08-.19-.19-.43-.13-.28c-.08-.17-.16-.33-.24-.49l-.18-.34-.12-.21c-.12-.23-.26-.45-.4-.67l-.06-.1-.26-.39,0-.07q-.24-.35-.51-.69L42.9,16c-.18-.23-.37-.45-.56-.67l0-.06L42,15l-.12-.13-.29-.31-.23-.22-.18-.17-.52-.47-.19-.16-.33-.27L39.79,13l-.41-.29-.25-.17-.25-.17h0l-.06.1-1.05,1.63h0a14.36,14.36,0,0,1,1.39,1l.06.05.57.51.09.08.54.55,0,.05a14.38,14.38,0,0,1,1.6,2.05l0,0c.14.22.28.45.41.69l.05.1c.13.23.24.46.36.69l0,.07c.13.26.24.52.35.79l0,0q.14.35.26.71l.09.26.15.52c0,.1.06.2.08.3s.1.39.14.59l.05.26c0,.24.08.48.12.72l0,.3c0,.19,0,.37.05.56s0,.19,0,.28c0,.27,0,.54,0,.81v.05c0,.27,0,.54,0,.8,0,.1,0,.19,0,.28s0,.37-.05.56l0,.3c0,.24-.07.47-.11.71s0,.19-.06.28-.08.39-.13.58l-.08.31-.15.51-.09.27c-.08.23-.16.46-.25.69l0,.06c-.11.27-.22.53-.35.78l0,.08c-.11.23-.23.46-.35.68l-.06.1c-.13.23-.27.46-.41.68l0,0A14.27,14.27,0,0,1,40.48,36l-.05.06-.54.54-.09.09-.56.5-.08.06q-.32.27-.66.52h0c-.23.17-.47.34-.72.5L38.88,40h0l.27-.19.22-.15.6-.44.14-.11.35-.28.16-.14.54-.48.18-.17.23-.22.29-.3.13-.14.3-.33.06-.07c.19-.22.37-.44.54-.66l.09-.12c.18-.23.34-.46.5-.69l.05-.07L43.8,35l.06-.1c.14-.22.27-.45.4-.67l.12-.21.18-.35c.09-.16.17-.33.24-.49l.13-.28.18-.42.08-.19c.08-.21.16-.42.24-.63l.06-.16q.24-.69.41-1.4l0-.08q.17-.73.29-1.48v-.08c.07-.48.12-1,.14-1.46,0,0,0-.1,0-.14,0-.24,0-.48,0-.72S46.39,25.67,46.37,25.43Z"/>
            <path class="cls-2" d="M38.17,26.15a8.22,8.22,0,0,0-3.76-6.9L33.29,21a6.16,6.16,0,0,1,0,10.35l1.12,1.73A8.22,8.22,0,0,0,38.17,26.15Z"/>
            <path class="cls-2" d="M42.28,26.15A12.33,12.33,0,0,0,36.65,15.8l-1.12,1.73a10.28,10.28,0,0,1,0,17.26l1.12,1.73A12.33,12.33,0,0,0,42.28,26.15Z"/>
            <path class="cls-2" d="M30,22.94a3.21,3.21,0,0,0-1.24,6.18V47.66h2.49V29.12A3.21,3.21,0,0,0,30,22.94Z"/>
            <path class="cls-2" d="M20.78,37.15c-.2-.17-.39-.34-.57-.51l-.08-.08c-.19-.18-.37-.36-.55-.55l0-.05a14.33,14.33,0,0,1-1.6-2.05l0,0c-.14-.22-.28-.45-.41-.69l-.05-.1c-.13-.23-.24-.46-.36-.69l0-.07c-.12-.26-.24-.52-.35-.79l0,0q-.13-.35-.26-.7l-.09-.26c-.05-.17-.1-.34-.15-.52l-.08-.3c-.05-.19-.09-.39-.13-.59l-.05-.26q-.07-.36-.12-.72c0-.1,0-.2,0-.3s0-.37-.05-.56l0-.28c0-.27,0-.53,0-.8v-.06c0-.27,0-.54,0-.8,0-.09,0-.19,0-.28s0-.37.05-.56,0-.2,0-.3.07-.47.11-.71,0-.19.06-.28.08-.39.13-.58.05-.21.08-.31.1-.34.15-.51l.09-.27c.08-.23.16-.46.25-.69l0-.06c.11-.27.22-.53.35-.79l0-.08q.17-.35.35-.68l.06-.11c.13-.23.26-.46.4-.68l0,0a14.47,14.47,0,0,1,1.59-2.05l.05-.06c.18-.19.35-.37.54-.54l.09-.09c.18-.17.37-.34.56-.5l.07-.06c.21-.18.43-.35.66-.52h0c.23-.17.48-.34.72-.5l-1.12-1.73h0l-.28.19-.21.15-.6.44-.14.11-.35.28-.16.14-.54.48-.18.17-.23.22-.29.3L18,15l-.3.33-.06.07c-.19.22-.37.44-.54.66l-.1.13c-.17.22-.34.46-.5.69l-.05.07-.26.39-.06.1c-.14.22-.27.44-.4.67l-.12.21-.19.35c-.09.16-.17.33-.24.49l-.13.28-.19.43-.08.19c-.08.21-.16.41-.23.63l-.06.16c-.16.46-.3.93-.41,1.4l0,.07c-.12.48-.21,1-.29,1.48v.08c-.07.48-.12,1-.14,1.46,0,0,0,.1,0,.14,0,.24,0,.48,0,.72s0,.48,0,.72c0,0,0,.1,0,.14,0,.49.07,1,.14,1.46v.07c.07.5.17,1,.29,1.48l0,.07q.18.71.41,1.41l.06.16c.07.21.15.42.24.63l.08.19.19.43.13.28c.08.17.16.33.24.49l.19.34.12.21c.13.23.26.45.4.67l.06.1.26.39,0,.07c.16.23.33.46.5.69l.09.12c.18.23.37.45.56.67l0,.06.3.34.13.13.29.31.23.22.18.17.52.46.19.16.33.27.33.25.41.29.25.17.25.17h0l.06-.1,1.05-1.63h0a14.66,14.66,0,0,1-1.39-1Z"/>
            <path class="cls-2" d="M26.71,21l-1.12-1.73a8.22,8.22,0,0,0,0,13.81l1.12-1.73a6.16,6.16,0,0,1,0-10.35Z"/>
            <path class="cls-2" d="M19.78,26.15a10.28,10.28,0,0,1,4.69-8.63L23.35,15.8a12.34,12.34,0,0,0,0,20.71l1.12-1.73A10.28,10.28,0,0,1,19.78,26.15Z"/>
        </g>
    </g>
</svg>