<svg xmlns="http://www.w3.org/2000/svg" width="60" height="28">
    <path fill="none" fill-rule="evenodd" d="M0 2h60v26H0V2z" opacity=".4"/>
    <path fill="#606060" fill-rule="evenodd" d="M20 15v-4c0-2.9 1.224-5.945 4.182-6.875C24.182 4.125 26.128 3 31 3c4.822 0 6.818 1.125 6.818 1.125C40.551 4.906 42 8.1 42 11v4H20zm18-4c0-.828-.476-1.503-1-2 0 0-1.536-2-6-2-4.485 0-6 2-6 2-.473.407-1 1.172-1 2v1h14v-1z"/>
    <path fill="#E35B14" fill-rule="evenodd" d="M56 23.473c0 1.521-11.193 1.472-25 1.472s-25 .403-25-1.472c0-.053.051-.105.142-.156A2.225 2.225 0 0 1 6 23v-1-3.5c0-1.657 1.336-3 2.983-3 0 0 11.555-1.5 21.985-1.5 10.451 0 22.049 1.5 22.049 1.5a2.992 2.992 0 0 1 2.983 3V23s-.087.122-.246.277c.145.064.246.129.246.196z"/>
    <path fill="#FF6A1D" fill-rule="evenodd" d="M56 21.473c0 1.521-11.193 1.472-25 1.472s-25 .403-25-1.472c0-.053.051-.105.142-.156A2.225 2.225 0 0 1 6 21v-1-3.5c0-1.657 1.336-3 2.983-3 0 0 11.555-1.5 21.985-1.5 10.451 0 22.049 1.5 22.049 1.5a2.992 2.992 0 0 1 2.983 3V21s-.087.121-.246.277c.145.064.246.129.246.196z"/>
    <path fill="#F15D11" fill-rule="evenodd" d="M47 23v-2a2 2 0 1 1 4 0v2h-4zm-6-2a2 2 0 1 1 4 0v2h-4v-2zm-6 0a2 2 0 1 1 4 0v2h-4v-2zm-6 0a2 2 0 1 1 4 0v2h-4v-2zm-6 0a2 2 0 1 1 4 0v2h-4v-2zm-6 0a2 2 0 1 1 4 0v2h-4v-2zm-6 0a2 2 0 1 1 4 0v2h-4v-2z"/>
    <path fill="#FF9D2A" fill-rule="evenodd" d="M31 12c11.598 0 21 1.187 21 2 0 1.521-9.402.945-21 .945s-21 .93-21-.945c0-.813 9.402-2 21-2z"/>
    <path fill="#FFF" fill-rule="evenodd" d="M21.997 15.409c.036.831-1.277 1.545-2.932 1.595-1.655.05-3.026-.583-3.062-1.413-.036-.831 1.277-1.545 2.932-1.595 1.655-.05 3.026.583 3.062 1.413z" opacity=".8"/>
</svg>
