<svg xmlns="http://www.w3.org/2000/svg" width="60" height="70">
    <path fill="none" fill-rule="evenodd" d="M0 0h60v65H0V0z" opacity=".4"/>
    <path fill="#B2B2B2" fill-rule="evenodd" d="M50 55c-1.054 5.478-2.678 8.013-8 9 0 0-5.815 1-11 1-5.254 0-11-1-11-1-5.246-1.442-7.102-3.483-8-9L9 22c0-1.657 1.353-3 3-3 0 0 7.13 1 19.08 1C43.834 20 50 19 50 19c1.837.002 3.036 1.343 3 3l-3 33zM22.76 31.962c-.069-1.152-1.187-2.037-2.497-1.976-1.311.061-2.317 1.044-2.248 2.196l1.25 20.856c.069 1.152 1.187 2.037 2.497 1.976 1.31-.061 2.317-1.044 2.247-2.195L22.76 31.962zm11.24.272C34 31 33 30 31.766 30h-.532C30 30 29 31 29 32.234v20.532C29 54 30 55 31.234 55h.532C33 55 34 54 34 52.766V32.234zm8.733-2.249c-1.317-.059-2.44.827-2.508 1.979l-1.23 20.857c-.068 1.152.945 2.134 2.263 2.194 1.317.059 2.44-.827 2.508-1.979l1.23-20.857c.068-1.152-.945-2.134-2.263-2.194z"/>
    <path fill="#A1A1A1" fill-rule="evenodd" d="M31 62c7.732 0 14-2.475 14 .5 0 1.381-6.268 2.5-14 2.5s-14-1.119-14-2.5c0-3.006 6.268-.5 14-.5z"/>
    <path fill="#E8E8E8" fill-rule="evenodd" d="M43.766 53.036c-.068 1.152-1.191 2.038-2.508 1.979-1.318-.06-2.331-1.042-2.263-2.194l1.23-20.857c.068-1.152 1.191-2.038 2.508-1.979 1.318.06 2.331 1.042 2.263 2.194l-1.23 20.857zM31.547 55h-.094c-1.234 0-2.234-1-2.234-2.234V32.234c0-1.234 1-2.234 2.234-2.234h.094c1.234 0 2.234 1 2.234 2.234v20.532c0 1.234-1 2.234-2.234 2.234zm-9.785.014c-1.31.061-2.428-.824-2.497-1.976l-1.25-20.856c-.069-1.152.937-2.135 2.248-2.196 1.31-.061 2.428.824 2.497 1.976l1.249 20.857c.07 1.151-.937 2.134-2.247 2.195z"/>
    <path fill="#9E9E9E" fill-rule="evenodd" d="M11 19s9.743 1 20 1c10.243 0 20-1 20-1 .828 0 2 .965 2 2 0 1.035.055 3-2 3 0 0-9.737 1-20 1-10.237 0-20-1-20-1-1.738 0-2-1.965-2-3s1.172-2 2-2z"/>
</svg>
