<svg xmlns="http://www.w3.org/2000/svg" width="24" height="24">
    <path fill="#B819B3" fill-rule="evenodd" d="M12 0c6.627 0 12 5.373 12 12s-5.373 12-12 12S0 18.627 0 12 5.373 0 12 0z"/>
    <path fill="#F778F3" fill-rule="evenodd" d="M7.636 9.965c0-.518.166-1.042.499-1.575.334-.531.818-.972 1.457-1.321.639-.349 1.383-.524 2.233-.524.791 0 1.49.147 2.095.438.605.292 1.073.688 1.403 1.19a2.92 2.92 0 0 1 .495 1.636c0 .465-.094.871-.282 1.22a3.721 3.721 0 0 1-.671.904c-.259.254-.724.68-1.394 1.281a5.895 5.895 0 0 0-.448.445 1.81 1.81 0 0 0-.248.353 1.598 1.598 0 0 0-.127.318 11.48 11.48 0 0 0-.135.561c-.104.567-.428.851-.974.851a.997.997 0 0 1-.716-.278c-.193-.186-.29-.461-.29-.827 0-.458.071-.854.212-1.189.136-.326.327-.625.566-.884.234-.254.549-.556.949-.905.349-.306.6-.535.756-.691.156-.156.287-.328.392-.519.107-.192.16-.398.16-.622 0-.436-.162-.805-.487-1.105-.324-.3-.743-.451-1.256-.451-.6 0-1.041.153-1.325.455-.284.302-.524.749-.72 1.338-.185.616-.537.925-1.056.925a1.04 1.04 0 0 1-.772-.324c-.211-.214-.316-.449-.316-.7zm3.993 8.968a1.295 1.295 0 0 1-.872-.323c-.247-.216-.372-.517-.372-.905 0-.343.12-.632.36-.867.24-.234.535-.351.884-.351.344 0 .633.117.867.351.235.235.352.524.352.867 0 .382-.123.682-.368.9a1.238 1.238 0 0 1-.851.328z"/>
</svg>
