<svg xmlns="http://www.w3.org/2000/svg" width="24" height="24">
    <path fill="#009400" fill-rule="evenodd" d="M12 0c6.627 0 12 5.373 12 12s-5.373 12-12 12S0 18.627 0 12 5.373 0 12 0z"/>
    <path fill="#3BCE3B" fill-rule="evenodd" d="M8.327 17.259h.835c.461 0 .835.392.835.876 0 .485-.374.877-.835.877h-3.34c-.462 0-.836-.392-.836-.877 0-.484.374-.876.836-.876h.835V5.862c0-.484.374-.876.835-.876.461 0 .835.392.835.876v11.397z"/>
    <path fill="#3BCE3B" fill-rule="evenodd" d="M12.172 11.915c-1.068.199-2.345.129-2.984-.274a.352.352 0 0 1-.182-.3V5.747c0-.193.166-.35.373-.35a.385.385 0 0 1 .235.077c.641.399 1.494.496 2.558.297 1.604-.3 3.008-1.393 5.68-.292.146.068.129.162.129.268v5.594c0 .193-.167.35-.373.35-.104 0-.24-.068-.386-.118-2.465-.821-3.446.041-5.05.341v.001z"/>
</svg>
