<svg xmlns="http://www.w3.org/2000/svg" width="22" height="22">
    <defs>
        <filter id="a" width="22" height="22" x="0" y="0" filterUnits="userSpaceOnUse">
            <feOffset dy="2" in="SourceAlpha"/>
            <feGaussianBlur result="blurOut" stdDeviation="2"/>
            <feFlood flood-color="#000" result="floodOut"/>
            <feComposite in="floodOut" in2="blurOut" operator="atop"/>
            <feComponentTransfer>
                <feFuncA slope=".15" type="linear"/>
            </feComponentTransfer>
            <feMerge>
                <feMergeNode/>
                <feMergeNode in="SourceGraphic"/>
            </feMerge>
        </filter>
    </defs>
    <path fill="#FFF" fill-rule="evenodd" d="M16 15a1 1 0 0 1-1-1V9.569a1.43 1.43 0 0 1-.741 1.195L5.258 15.82c-1 .562-2.25-.14-2.25-1.264V4.445c0-1.124 1.25-1.826 2.25-1.264l9.001 5.056c.476.267.719.727.741 1.195V5a1 1 0 0 1 2 0v9a1 1 0 0 1-1 1z" filter="url(#a)"/>
</svg>
