<svg xmlns="http://www.w3.org/2000/svg" width="24" height="24">
    <path fill="#FF7F00" fill-rule="evenodd" d="M12 0c6.627 0 12 5.373 12 12s-5.373 12-12 12S0 18.627 0 12 5.373 0 12 0z"/>
    <path fill="#FFDE82" fill-rule="evenodd" d="M9.742 13.8l.815-.815a.384.384 0 0 0-.543-.54l-.813.813-.813-.815a.384.384 0 0 0-.542.543l.814.814-.814.812a.383.383 0 1 0 .542.542l.813-.814.814.814a.383.383 0 1 0 .54-.542l-.813-.812zm-.158-4.983V7.669a.384.384 0 1 0-.767 0v1.148H7.669a.384.384 0 0 0 0 .767h1.148v1.151a.384.384 0 0 0 .767 0V9.584h1.151a.384.384 0 0 0 0-.767H9.584zM7.157 4.986h8.686c1.199 0 2.171.972 2.171 2.171v8.686a2.171 2.171 0 0 1-2.171 2.171H7.157a2.171 2.171 0 0 1-2.171-2.171V7.157c0-1.199.972-2.171 2.171-2.171zm5.876 3.832a.383.383 0 0 0 0 .766h2.298a.384.384 0 1 0 0-.767h-2.298v.001zm0 3.832a.382.382 0 1 0 0 .766h2.298a.383.383 0 1 0 0-.766h-2.298zm0 1.533a.382.382 0 0 0 0 .765h2.298a.384.384 0 0 0 0-.765h-2.298z"/>
</svg>
