<svg xmlns="http://www.w3.org/2000/svg" width="42" height="30">
    <defs>
        <filter id="a" width="42" height="30" x="0" y="0" filterUnits="userSpaceOnUse">
            <feOffset dy="2" in="SourceAlpha"/>
            <feGaussianBlur result="blurOut" stdDeviation="2"/>
            <feFlood flood-color="#000" result="floodOut"/>
            <feComposite in="floodOut" in2="blurOut" operator="atop"/>
            <feComponentTransfer>
                <feFuncA slope=".15" type="linear"/>
            </feComponentTransfer>
            <feMerge>
                <feMergeNode/>
                <feMergeNode in="SourceGraphic"/>
            </feMerge>
        </filter>
    </defs>
    <path fill="none" fill-rule="evenodd" d="M0 3h40v26H0V3z"/>
    <path fill="#FFF" fill-rule="evenodd" d="M35.796 9.985l-12.749 12.81a3.982 3.982 0 0 1-3.067 1.176 3.981 3.981 0 0 1-3.066-1.176L4.165 9.985a4.118 4.118 0 0 1 0-5.775 4 4 0 0 1 5.705 0l10.11 10.158L30.091 4.21a4 4 0 0 1 5.705 0 4.12 4.12 0 0 1 0 5.775z" filter="url(#a)"/>
</svg>
