<svg xmlns="http://www.w3.org/2000/svg" width="27" height="28">
    <defs>
        <filter id="a" width="27" height="28" x="0" y="0" filterUnits="userSpaceOnUse">
            <feOffset dy="2" in="SourceAlpha"/>
            <feGaussianBlur result="blurOut" stdDeviation="2"/>
            <feFlood flood-color="#000" result="floodOut"/>
            <feComposite in="floodOut" in2="blurOut" operator="atop"/>
            <feComponentTransfer>
                <feFuncA slope=".15" type="linear"/>
            </feComponentTransfer>
            <feMerge>
                <feMergeNode/>
                <feMergeNode in="SourceGraphic"/>
            </feMerge>
        </filter>
    </defs>
    <path fill="#FFF" fill-rule="evenodd" d="M21 22h-6a1 1 0 0 1 0-2h5v-5a1 1 0 0 1 2 0v6a1 1 0 0 1-1 1zm.995-17.858v6.224c0 .631-.63.585-1.183.585s-.811.046-.811-.585V5H15a1 1 0 0 1 0-2h6a1 1 0 0 1 1 1c0 .028-.014.052-.016.08.001.021.011.04.011.062zM10 22H4a1 1 0 0 1-1-1v-6a1 1 0 0 1 2 0v5h5a1 1 0 0 1 0 2zm0-17H5v5a1 1 0 0 1-2 0V4a1 1 0 0 1 1-1h6a1 1 0 0 1 0 2z" filter="url(#a)"/>
</svg>
