<svg xmlns="http://www.w3.org/2000/svg" width="24" height="24">
    <path fill="#008380" fill-rule="evenodd" d="M12 0c6.627 0 12 5.373 12 12s-5.373 12-12 12S0 18.627 0 12 5.373 0 12 0z"/>
    <path fill="#78D5D3" fill-rule="evenodd" d="M10.894 16.145a1.746 1.746 0 1 1 0-1.745h1.661l3.906-3.905.016-.017a.873.873 0 0 1 .759-.442h2.619a.873.873 0 0 1 0 1.746h-2.213l-3.949 3.949a.902.902 0 0 1-.188.142.868.868 0 0 1-.632.272h-1.979zm2.212-8.727a1.745 1.745 0 1 1 0 1.746h-1.661l-3.906 3.905-.016.016a.871.871 0 0 1-.759.442H4.145a.871.871 0 1 1 0-1.745h2.213l3.949-3.949a.869.869 0 0 1 .188-.142.87.87 0 0 1 .632-.273h1.979z"/>
</svg>
