<svg xmlns="http://www.w3.org/2000/svg" width="24" height="24">
    <path fill="#007CA2" fill-rule="evenodd" d="M12 0c6.627 0 12 5.373 12 12s-5.373 12-12 12S0 18.627 0 12 5.373 0 12 0z"/>
    <path fill="#36CBF7" fill-rule="evenodd" d="M15.651 12.501c1.194-.11 2.249.805 2.355 2.044.106 1.238-.776 2.332-1.97 2.443-1.195.11-2.249-.805-2.356-2.044a2.292 2.292 0 0 1 .815-1.966l-2.229-3.632a2.1 2.1 0 0 1-1.532 0l-2.23 3.632c.94.772 1.099 2.189.354 3.164a2.12 2.12 0 0 1-3.05.368c-.94-.772-1.099-2.188-.355-3.164a2.138 2.138 0 0 1 1.895-.845l2.406-3.922c-.714-.999-.512-2.41.451-3.151.963-.741 2.323-.531 3.038.468a2.322 2.322 0 0 1 0 2.683l2.407 3.922h.001z"/>
</svg>
