<svg xmlns="http://www.w3.org/2000/svg" width="141.75" height="41.56" viewBox="0 0 141.75 41.56"><defs><style>.cls-1{fill:#a730ac;stroke:#fff;stroke-miterlimit:10;stroke-width:2px;}.cls-2{fill:#fff;}</style></defs><title>variable_8</title><g id="레이어_2" data-name="레이어 2"><g id="레이어_3" data-name="레이어 3"><rect class="cls-1" x="1" y="1" width="139.75" height="39.56" rx="6.87"/><path class="cls-2" d="M55.42,20a1.58,1.58,0,0,1-.33,1.15,1.69,1.69,0,0,1-1.17.31H49.11a1.7,1.7,0,0,1-1.18-.31A1.63,1.63,0,0,1,47.61,20V15a1.6,1.6,0,0,1,.32-1.14,1.65,1.65,0,0,1,1.18-.32h4.81a1.64,1.64,0,0,1,1.17.32A1.55,1.55,0,0,1,55.42,15Zm-4.5,8.71a1.69,1.69,0,0,1-1.17-.32,1.55,1.55,0,0,1-.33-1.14V23.94a.81.81,0,0,1,.35-.72,1.42,1.42,0,0,1,.8-.23,1.4,1.4,0,0,1,.78.23.81.81,0,0,1,.35.72v2.47a.36.36,0,0,0,.4.41h7.35a.67.67,0,0,1,.6.28,1.19,1.19,0,0,1,.19.69,1.17,1.17,0,0,1-.19.67.7.7,0,0,1-.6.28ZM53.2,15.82a.37.37,0,0,0-.41-.41H50.23a.36.36,0,0,0-.4.41V19.2a.36.36,0,0,0,.4.41h2.56a.37.37,0,0,0,.41-.41Zm8.31,1.11a.69.69,0,0,1,.62.28,1.35,1.35,0,0,1,0,1.38.68.68,0,0,1-.62.3H59.86v4.7a.8.8,0,0,1-.35.72,1.33,1.33,0,0,1-.78.23,1.3,1.3,0,0,1-.78-.23.8.8,0,0,1-.35-.72V13.48a.83.83,0,0,1,.35-.73,1.38,1.38,0,0,1,.78-.23,1.4,1.4,0,0,1,.78.23.83.83,0,0,1,.35.73v3.45Z"/><path class="cls-2" d="M63.93,21.19a.65.65,0,0,1-.59-.26,1.11,1.11,0,0,1-.19-.67,1,1,0,0,1,.19-.63.66.66,0,0,1,.59-.27H77.29a.67.67,0,0,1,.59.27,1.07,1.07,0,0,1,.18.63,1.17,1.17,0,0,1-.18.67.67.67,0,0,1-.59.26Zm10.71,1.06a1.7,1.7,0,0,1,1.18.32,1.61,1.61,0,0,1,.32,1.15V25a1.63,1.63,0,0,1-.32,1.15,1.7,1.7,0,0,1-1.18.31H67.49a.24.24,0,0,0-.27.27v.32a.24.24,0,0,0,.27.26h8.28a.63.63,0,0,1,.55.26,1,1,0,0,1,.17.6,1,1,0,0,1-.17.61.63.63,0,0,1-.55.26H66.54a1.7,1.7,0,0,1-1.18-.32A1.61,1.61,0,0,1,65,27.57v-1.3a1.6,1.6,0,0,1,.32-1.14,1.65,1.65,0,0,1,1.18-.32h7.15a.24.24,0,0,0,.27-.27v-.3a.24.24,0,0,0-.27-.26h-8a.63.63,0,0,1-.55-.26,1.09,1.09,0,0,1,0-1.2.61.61,0,0,1,.55-.27Zm-8-3.95A1.68,1.68,0,0,1,65.42,18a1.58,1.58,0,0,1-.33-1.15V14.36a1.56,1.56,0,0,1,.33-1.15,1.67,1.67,0,0,1,1.17-.32H75.3a.65.65,0,0,1,.57.27,1.09,1.09,0,0,1,.18.63,1.11,1.11,0,0,1-.18.65.65.65,0,0,1-.57.27H67.77a.35.35,0,0,0-.4.4v1a.36.36,0,0,0,.4.41h7.7a.65.65,0,0,1,.57.26A1.19,1.19,0,0,1,76,18a.63.63,0,0,1-.57.26Z"/><path class="cls-2" d="M80.83,15.64a.67.67,0,0,1-.6-.28,1.15,1.15,0,0,1-.19-.67,1.19,1.19,0,0,1,.19-.69.7.7,0,0,1,.6-.28h5.3a1.7,1.7,0,0,1,1.18.32,1.6,1.6,0,0,1,.32,1.14v2a9.12,9.12,0,0,1-.09,1.34,4,4,0,0,1-.32,1.14,4.59,4.59,0,0,1-.66,1.05,7.65,7.65,0,0,1-1.11,1.07c-.46.38-1,.78-1.67,1.22s-1.42.92-2.32,1.46a.82.82,0,0,1-.76.08,1.22,1.22,0,0,1-.61-.47,1.31,1.31,0,0,1-.21-.74.77.77,0,0,1,.39-.67c.79-.48,1.48-.91,2-1.28s1.05-.7,1.43-1a7,7,0,0,0,.9-.81,3.2,3.2,0,0,0,.49-.75,2.64,2.64,0,0,0,.21-.79,8.62,8.62,0,0,0,0-.93v-1a.36.36,0,0,0-.4-.41ZM92.69,27a.8.8,0,0,1-.34.72,1.44,1.44,0,0,1-.8.23,1.41,1.41,0,0,1-.79-.23.8.8,0,0,1-.34-.72V13.48a.82.82,0,0,1,.34-.73,1.41,1.41,0,0,1,.79-.23,1.44,1.44,0,0,1,.8.23.82.82,0,0,1,.34.73Z"/></g></g></svg>